M48
; DRILL file {KiCad (5.1.6-0-10_14)} date Saturday, October 03, 2020 at 02:43:09 AM
; FORMAT={-:-/ absolute / inch / decimal}
; #@! TF.CreationDate,2020-10-03T02:43:09-05:00
; #@! TF.GenerationSoftware,Kicad,Pcbnew,(5.1.6-0-10_14)
; #@! TF.FileFunction,Plated,1,2,PTH
FMAT,2
INCH
T1C0.0157
T2C0.0236
T3C0.0315
T4C0.0354
%
G90
G05
T1
X5.2Y-3.6
X5.45Y-3.1
X5.75Y-3.1
T2
X4.8409Y-3.7
X4.9Y-3.7
X4.8409Y-2.95
X4.9Y-2.95
T3
X5.7Y-2.95
X5.8Y-2.95
X4.85Y-3.3
X4.95Y-3.3
X5.1Y-3.6
X5.1Y-3.7
X5.1Y-3.3
X5.2Y-3.3
X5.45Y-2.95
X5.55Y-2.95
X5.4Y-3.2
X5.4Y-3.5
X5.5Y-3.2
X5.5Y-3.5
X5.6Y-3.2
X5.6Y-3.5
X5.7Y-3.2
X5.7Y-3.5
T4
X5.15Y-2.95
X5.25Y-2.95
T0
M30
