%TF.GenerationSoftware,KiCad,Pcbnew,(5.1.6-0-10_14)*%
%TF.CreationDate,2020-10-03T02:43:04-05:00*%
%TF.ProjectId,usbc-power,75736263-2d70-46f7-9765-722e6b696361,rev?*%
%TF.SameCoordinates,Original*%
%TF.FileFunction,Legend,Top*%
%TF.FilePolarity,Positive*%
%FSLAX46Y46*%
G04 Gerber Fmt 4.6, Leading zero omitted, Abs format (unit mm)*
G04 Created by KiCad (PCBNEW (5.1.6-0-10_14)) date 2020-10-03 02:43:04*
%MOMM*%
%LPD*%
G01*
G04 APERTURE LIST*
%ADD10C,0.120000*%
%ADD11C,0.127000*%
%ADD12C,0.150000*%
%ADD13C,0.015000*%
G04 APERTURE END LIST*
D10*
%TO.C,R5*%
X124560000Y-83820000D02*
X124630000Y-83820000D01*
X124560000Y-83820000D02*
G75*
G03*
X124560000Y-83820000I-1370000J0D01*
G01*
D11*
%TO.C,J1*%
X157530000Y-89770000D02*
X156100000Y-89770000D01*
X153760000Y-89770000D02*
X152300000Y-89770000D01*
X157530000Y-80830000D02*
X156100000Y-80830000D01*
X153760000Y-80830000D02*
X152300000Y-80830000D01*
X157530000Y-89770000D02*
X157530000Y-80830000D01*
D10*
%TO.C,C1*%
X125830000Y-93980000D02*
G75*
G03*
X125830000Y-93980000I-2120000J0D01*
G01*
X123710000Y-93140000D02*
X123710000Y-91900000D01*
X123710000Y-96060000D02*
X123710000Y-94820000D01*
X123670000Y-93140000D02*
X123670000Y-91900000D01*
X123670000Y-96060000D02*
X123670000Y-94820000D01*
X123630000Y-93140000D02*
X123630000Y-91901000D01*
X123630000Y-96059000D02*
X123630000Y-94820000D01*
X123590000Y-96057000D02*
X123590000Y-94820000D01*
X123590000Y-93140000D02*
X123590000Y-91903000D01*
X123550000Y-96054000D02*
X123550000Y-94820000D01*
X123550000Y-93140000D02*
X123550000Y-91906000D01*
X123510000Y-96051000D02*
X123510000Y-94820000D01*
X123510000Y-93140000D02*
X123510000Y-91909000D01*
X123470000Y-96047000D02*
X123470000Y-94820000D01*
X123470000Y-93140000D02*
X123470000Y-91913000D01*
X123430000Y-96042000D02*
X123430000Y-94820000D01*
X123430000Y-93140000D02*
X123430000Y-91918000D01*
X123390000Y-96036000D02*
X123390000Y-94820000D01*
X123390000Y-93140000D02*
X123390000Y-91924000D01*
X123350000Y-96030000D02*
X123350000Y-94820000D01*
X123350000Y-93140000D02*
X123350000Y-91930000D01*
X123310000Y-96022000D02*
X123310000Y-94820000D01*
X123310000Y-93140000D02*
X123310000Y-91938000D01*
X123270000Y-96014000D02*
X123270000Y-94820000D01*
X123270000Y-93140000D02*
X123270000Y-91946000D01*
X123230000Y-96005000D02*
X123230000Y-94820000D01*
X123230000Y-93140000D02*
X123230000Y-91955000D01*
X123190000Y-95996000D02*
X123190000Y-94820000D01*
X123190000Y-93140000D02*
X123190000Y-91964000D01*
X123150000Y-95985000D02*
X123150000Y-94820000D01*
X123150000Y-93140000D02*
X123150000Y-91975000D01*
X123110000Y-95974000D02*
X123110000Y-94820000D01*
X123110000Y-93140000D02*
X123110000Y-91986000D01*
X123070000Y-95962000D02*
X123070000Y-94820000D01*
X123070000Y-93140000D02*
X123070000Y-91998000D01*
X123030000Y-95948000D02*
X123030000Y-94820000D01*
X123030000Y-93140000D02*
X123030000Y-92012000D01*
X122989000Y-95934000D02*
X122989000Y-94820000D01*
X122989000Y-93140000D02*
X122989000Y-92026000D01*
X122949000Y-95920000D02*
X122949000Y-94820000D01*
X122949000Y-93140000D02*
X122949000Y-92040000D01*
X122909000Y-95904000D02*
X122909000Y-94820000D01*
X122909000Y-93140000D02*
X122909000Y-92056000D01*
X122869000Y-95887000D02*
X122869000Y-94820000D01*
X122869000Y-93140000D02*
X122869000Y-92073000D01*
X122829000Y-95869000D02*
X122829000Y-94820000D01*
X122829000Y-93140000D02*
X122829000Y-92091000D01*
X122789000Y-95850000D02*
X122789000Y-94820000D01*
X122789000Y-93140000D02*
X122789000Y-92110000D01*
X122749000Y-95831000D02*
X122749000Y-94820000D01*
X122749000Y-93140000D02*
X122749000Y-92129000D01*
X122709000Y-95810000D02*
X122709000Y-94820000D01*
X122709000Y-93140000D02*
X122709000Y-92150000D01*
X122669000Y-95788000D02*
X122669000Y-94820000D01*
X122669000Y-93140000D02*
X122669000Y-92172000D01*
X122629000Y-95765000D02*
X122629000Y-94820000D01*
X122629000Y-93140000D02*
X122629000Y-92195000D01*
X122589000Y-95740000D02*
X122589000Y-94820000D01*
X122589000Y-93140000D02*
X122589000Y-92220000D01*
X122549000Y-95715000D02*
X122549000Y-94820000D01*
X122549000Y-93140000D02*
X122549000Y-92245000D01*
X122509000Y-95688000D02*
X122509000Y-94820000D01*
X122509000Y-93140000D02*
X122509000Y-92272000D01*
X122469000Y-95660000D02*
X122469000Y-94820000D01*
X122469000Y-93140000D02*
X122469000Y-92300000D01*
X122429000Y-95630000D02*
X122429000Y-94820000D01*
X122429000Y-93140000D02*
X122429000Y-92330000D01*
X122389000Y-95599000D02*
X122389000Y-94820000D01*
X122389000Y-93140000D02*
X122389000Y-92361000D01*
X122349000Y-95567000D02*
X122349000Y-94820000D01*
X122349000Y-93140000D02*
X122349000Y-92393000D01*
X122309000Y-95532000D02*
X122309000Y-94820000D01*
X122309000Y-93140000D02*
X122309000Y-92428000D01*
X122269000Y-95496000D02*
X122269000Y-94820000D01*
X122269000Y-93140000D02*
X122269000Y-92464000D01*
X122229000Y-95458000D02*
X122229000Y-94820000D01*
X122229000Y-93140000D02*
X122229000Y-92502000D01*
X122189000Y-95418000D02*
X122189000Y-94820000D01*
X122189000Y-93140000D02*
X122189000Y-92542000D01*
X122149000Y-95376000D02*
X122149000Y-94820000D01*
X122149000Y-93140000D02*
X122149000Y-92584000D01*
X122109000Y-95331000D02*
X122109000Y-92629000D01*
X122069000Y-95284000D02*
X122069000Y-92676000D01*
X122029000Y-95234000D02*
X122029000Y-92726000D01*
X121989000Y-95180000D02*
X121989000Y-92780000D01*
X121949000Y-95122000D02*
X121949000Y-92838000D01*
X121909000Y-95060000D02*
X121909000Y-92900000D01*
X121869000Y-94993000D02*
X121869000Y-92967000D01*
X121829000Y-94920000D02*
X121829000Y-93040000D01*
X121789000Y-94839000D02*
X121789000Y-93121000D01*
X121749000Y-94748000D02*
X121749000Y-93212000D01*
X121709000Y-94644000D02*
X121709000Y-93316000D01*
X121669000Y-94517000D02*
X121669000Y-93443000D01*
X121629000Y-94350000D02*
X121629000Y-93610000D01*
X125979801Y-95175000D02*
X125579801Y-95175000D01*
X125779801Y-95375000D02*
X125779801Y-94975000D01*
%TO.C,C2*%
X125779801Y-76325000D02*
X125779801Y-75925000D01*
X125979801Y-76125000D02*
X125579801Y-76125000D01*
X121629000Y-75300000D02*
X121629000Y-74560000D01*
X121669000Y-75467000D02*
X121669000Y-74393000D01*
X121709000Y-75594000D02*
X121709000Y-74266000D01*
X121749000Y-75698000D02*
X121749000Y-74162000D01*
X121789000Y-75789000D02*
X121789000Y-74071000D01*
X121829000Y-75870000D02*
X121829000Y-73990000D01*
X121869000Y-75943000D02*
X121869000Y-73917000D01*
X121909000Y-76010000D02*
X121909000Y-73850000D01*
X121949000Y-76072000D02*
X121949000Y-73788000D01*
X121989000Y-76130000D02*
X121989000Y-73730000D01*
X122029000Y-76184000D02*
X122029000Y-73676000D01*
X122069000Y-76234000D02*
X122069000Y-73626000D01*
X122109000Y-76281000D02*
X122109000Y-73579000D01*
X122149000Y-74090000D02*
X122149000Y-73534000D01*
X122149000Y-76326000D02*
X122149000Y-75770000D01*
X122189000Y-74090000D02*
X122189000Y-73492000D01*
X122189000Y-76368000D02*
X122189000Y-75770000D01*
X122229000Y-74090000D02*
X122229000Y-73452000D01*
X122229000Y-76408000D02*
X122229000Y-75770000D01*
X122269000Y-74090000D02*
X122269000Y-73414000D01*
X122269000Y-76446000D02*
X122269000Y-75770000D01*
X122309000Y-74090000D02*
X122309000Y-73378000D01*
X122309000Y-76482000D02*
X122309000Y-75770000D01*
X122349000Y-74090000D02*
X122349000Y-73343000D01*
X122349000Y-76517000D02*
X122349000Y-75770000D01*
X122389000Y-74090000D02*
X122389000Y-73311000D01*
X122389000Y-76549000D02*
X122389000Y-75770000D01*
X122429000Y-74090000D02*
X122429000Y-73280000D01*
X122429000Y-76580000D02*
X122429000Y-75770000D01*
X122469000Y-74090000D02*
X122469000Y-73250000D01*
X122469000Y-76610000D02*
X122469000Y-75770000D01*
X122509000Y-74090000D02*
X122509000Y-73222000D01*
X122509000Y-76638000D02*
X122509000Y-75770000D01*
X122549000Y-74090000D02*
X122549000Y-73195000D01*
X122549000Y-76665000D02*
X122549000Y-75770000D01*
X122589000Y-74090000D02*
X122589000Y-73170000D01*
X122589000Y-76690000D02*
X122589000Y-75770000D01*
X122629000Y-74090000D02*
X122629000Y-73145000D01*
X122629000Y-76715000D02*
X122629000Y-75770000D01*
X122669000Y-74090000D02*
X122669000Y-73122000D01*
X122669000Y-76738000D02*
X122669000Y-75770000D01*
X122709000Y-74090000D02*
X122709000Y-73100000D01*
X122709000Y-76760000D02*
X122709000Y-75770000D01*
X122749000Y-74090000D02*
X122749000Y-73079000D01*
X122749000Y-76781000D02*
X122749000Y-75770000D01*
X122789000Y-74090000D02*
X122789000Y-73060000D01*
X122789000Y-76800000D02*
X122789000Y-75770000D01*
X122829000Y-74090000D02*
X122829000Y-73041000D01*
X122829000Y-76819000D02*
X122829000Y-75770000D01*
X122869000Y-74090000D02*
X122869000Y-73023000D01*
X122869000Y-76837000D02*
X122869000Y-75770000D01*
X122909000Y-74090000D02*
X122909000Y-73006000D01*
X122909000Y-76854000D02*
X122909000Y-75770000D01*
X122949000Y-74090000D02*
X122949000Y-72990000D01*
X122949000Y-76870000D02*
X122949000Y-75770000D01*
X122989000Y-74090000D02*
X122989000Y-72976000D01*
X122989000Y-76884000D02*
X122989000Y-75770000D01*
X123030000Y-74090000D02*
X123030000Y-72962000D01*
X123030000Y-76898000D02*
X123030000Y-75770000D01*
X123070000Y-74090000D02*
X123070000Y-72948000D01*
X123070000Y-76912000D02*
X123070000Y-75770000D01*
X123110000Y-74090000D02*
X123110000Y-72936000D01*
X123110000Y-76924000D02*
X123110000Y-75770000D01*
X123150000Y-74090000D02*
X123150000Y-72925000D01*
X123150000Y-76935000D02*
X123150000Y-75770000D01*
X123190000Y-74090000D02*
X123190000Y-72914000D01*
X123190000Y-76946000D02*
X123190000Y-75770000D01*
X123230000Y-74090000D02*
X123230000Y-72905000D01*
X123230000Y-76955000D02*
X123230000Y-75770000D01*
X123270000Y-74090000D02*
X123270000Y-72896000D01*
X123270000Y-76964000D02*
X123270000Y-75770000D01*
X123310000Y-74090000D02*
X123310000Y-72888000D01*
X123310000Y-76972000D02*
X123310000Y-75770000D01*
X123350000Y-74090000D02*
X123350000Y-72880000D01*
X123350000Y-76980000D02*
X123350000Y-75770000D01*
X123390000Y-74090000D02*
X123390000Y-72874000D01*
X123390000Y-76986000D02*
X123390000Y-75770000D01*
X123430000Y-74090000D02*
X123430000Y-72868000D01*
X123430000Y-76992000D02*
X123430000Y-75770000D01*
X123470000Y-74090000D02*
X123470000Y-72863000D01*
X123470000Y-76997000D02*
X123470000Y-75770000D01*
X123510000Y-74090000D02*
X123510000Y-72859000D01*
X123510000Y-77001000D02*
X123510000Y-75770000D01*
X123550000Y-74090000D02*
X123550000Y-72856000D01*
X123550000Y-77004000D02*
X123550000Y-75770000D01*
X123590000Y-74090000D02*
X123590000Y-72853000D01*
X123590000Y-77007000D02*
X123590000Y-75770000D01*
X123630000Y-77009000D02*
X123630000Y-75770000D01*
X123630000Y-74090000D02*
X123630000Y-72851000D01*
X123670000Y-77010000D02*
X123670000Y-75770000D01*
X123670000Y-74090000D02*
X123670000Y-72850000D01*
X123710000Y-77010000D02*
X123710000Y-75770000D01*
X123710000Y-74090000D02*
X123710000Y-72850000D01*
X125830000Y-74930000D02*
G75*
G03*
X125830000Y-74930000I-2120000J0D01*
G01*
%TO.C,D1*%
X129520000Y-73385000D02*
X129520000Y-76475000D01*
X134580000Y-74930000D02*
G75*
G03*
X134580000Y-74930000I-2500000J0D01*
G01*
X135070000Y-74930462D02*
G75*
G03*
X129520000Y-73385170I-2990000J462D01*
G01*
X135070000Y-74929538D02*
G75*
G02*
X129520000Y-76474830I-2990000J-462D01*
G01*
%TO.C,R1*%
X130710000Y-83820000D02*
X130640000Y-83820000D01*
X133450000Y-83820000D02*
G75*
G03*
X133450000Y-83820000I-1370000J0D01*
G01*
%TO.C,R2*%
X130910000Y-91440000D02*
G75*
G03*
X130910000Y-91440000I-1370000J0D01*
G01*
X129540000Y-92810000D02*
X129540000Y-92880000D01*
%TO.C,R3*%
X145950000Y-74930000D02*
X145880000Y-74930000D01*
X148690000Y-74930000D02*
G75*
G03*
X148690000Y-74930000I-1370000J0D01*
G01*
%TO.C,R4*%
X139800000Y-74930000D02*
G75*
G03*
X139800000Y-74930000I-1370000J0D01*
G01*
X139800000Y-74930000D02*
X139870000Y-74930000D01*
%TO.C,U1*%
X146110000Y-87740000D02*
X146110000Y-86090000D01*
X135830000Y-87740000D02*
X146110000Y-87740000D01*
X135830000Y-82440000D02*
X135830000Y-87740000D01*
X146110000Y-82440000D02*
X135830000Y-82440000D01*
X146110000Y-84090000D02*
X146110000Y-82440000D01*
X146110000Y-86090000D02*
G75*
G02*
X146110000Y-84090000I0J1000000D01*
G01*
%TO.C,R5*%
D12*
X124293333Y-81902380D02*
X123960000Y-81426190D01*
X123721904Y-81902380D02*
X123721904Y-80902380D01*
X124102857Y-80902380D01*
X124198095Y-80950000D01*
X124245714Y-80997619D01*
X124293333Y-81092857D01*
X124293333Y-81235714D01*
X124245714Y-81330952D01*
X124198095Y-81378571D01*
X124102857Y-81426190D01*
X123721904Y-81426190D01*
X125198095Y-80902380D02*
X124721904Y-80902380D01*
X124674285Y-81378571D01*
X124721904Y-81330952D01*
X124817142Y-81283333D01*
X125055238Y-81283333D01*
X125150476Y-81330952D01*
X125198095Y-81378571D01*
X125245714Y-81473809D01*
X125245714Y-81711904D01*
X125198095Y-81807142D01*
X125150476Y-81854761D01*
X125055238Y-81902380D01*
X124817142Y-81902380D01*
X124721904Y-81854761D01*
X124674285Y-81807142D01*
%TO.C,J1*%
D13*
X149173123Y-87981333D02*
X149630266Y-87981333D01*
X149721695Y-88011809D01*
X149782647Y-88072761D01*
X149813123Y-88164190D01*
X149813123Y-88225142D01*
X149813123Y-87341333D02*
X149813123Y-87707047D01*
X149813123Y-87524190D02*
X149173123Y-87524190D01*
X149264552Y-87585142D01*
X149325504Y-87646095D01*
X149355980Y-87707047D01*
%TO.C,C1*%
D12*
X123543333Y-97587142D02*
X123495714Y-97634761D01*
X123352857Y-97682380D01*
X123257619Y-97682380D01*
X123114761Y-97634761D01*
X123019523Y-97539523D01*
X122971904Y-97444285D01*
X122924285Y-97253809D01*
X122924285Y-97110952D01*
X122971904Y-96920476D01*
X123019523Y-96825238D01*
X123114761Y-96730000D01*
X123257619Y-96682380D01*
X123352857Y-96682380D01*
X123495714Y-96730000D01*
X123543333Y-96777619D01*
X124495714Y-97682380D02*
X123924285Y-97682380D01*
X124210000Y-97682380D02*
X124210000Y-96682380D01*
X124114761Y-96825238D01*
X124019523Y-96920476D01*
X123924285Y-96968095D01*
%TO.C,C2*%
X123543333Y-78537142D02*
X123495714Y-78584761D01*
X123352857Y-78632380D01*
X123257619Y-78632380D01*
X123114761Y-78584761D01*
X123019523Y-78489523D01*
X122971904Y-78394285D01*
X122924285Y-78203809D01*
X122924285Y-78060952D01*
X122971904Y-77870476D01*
X123019523Y-77775238D01*
X123114761Y-77680000D01*
X123257619Y-77632380D01*
X123352857Y-77632380D01*
X123495714Y-77680000D01*
X123543333Y-77727619D01*
X123924285Y-77727619D02*
X123971904Y-77680000D01*
X124067142Y-77632380D01*
X124305238Y-77632380D01*
X124400476Y-77680000D01*
X124448095Y-77727619D01*
X124495714Y-77822857D01*
X124495714Y-77918095D01*
X124448095Y-78060952D01*
X123876666Y-78632380D01*
X124495714Y-78632380D01*
%TO.C,D1*%
X131341904Y-71422380D02*
X131341904Y-70422380D01*
X131580000Y-70422380D01*
X131722857Y-70470000D01*
X131818095Y-70565238D01*
X131865714Y-70660476D01*
X131913333Y-70850952D01*
X131913333Y-70993809D01*
X131865714Y-71184285D01*
X131818095Y-71279523D01*
X131722857Y-71374761D01*
X131580000Y-71422380D01*
X131341904Y-71422380D01*
X132865714Y-71422380D02*
X132294285Y-71422380D01*
X132580000Y-71422380D02*
X132580000Y-70422380D01*
X132484761Y-70565238D01*
X132389523Y-70660476D01*
X132294285Y-70708095D01*
%TO.C,R1*%
X130643333Y-86642380D02*
X130310000Y-86166190D01*
X130071904Y-86642380D02*
X130071904Y-85642380D01*
X130452857Y-85642380D01*
X130548095Y-85690000D01*
X130595714Y-85737619D01*
X130643333Y-85832857D01*
X130643333Y-85975714D01*
X130595714Y-86070952D01*
X130548095Y-86118571D01*
X130452857Y-86166190D01*
X130071904Y-86166190D01*
X131595714Y-86642380D02*
X131024285Y-86642380D01*
X131310000Y-86642380D02*
X131310000Y-85642380D01*
X131214761Y-85785238D01*
X131119523Y-85880476D01*
X131024285Y-85928095D01*
%TO.C,R2*%
X132362380Y-92876666D02*
X131886190Y-93210000D01*
X132362380Y-93448095D02*
X131362380Y-93448095D01*
X131362380Y-93067142D01*
X131410000Y-92971904D01*
X131457619Y-92924285D01*
X131552857Y-92876666D01*
X131695714Y-92876666D01*
X131790952Y-92924285D01*
X131838571Y-92971904D01*
X131886190Y-93067142D01*
X131886190Y-93448095D01*
X131457619Y-92495714D02*
X131410000Y-92448095D01*
X131362380Y-92352857D01*
X131362380Y-92114761D01*
X131410000Y-92019523D01*
X131457619Y-91971904D01*
X131552857Y-91924285D01*
X131648095Y-91924285D01*
X131790952Y-91971904D01*
X132362380Y-92543333D01*
X132362380Y-91924285D01*
%TO.C,R3*%
X145883333Y-77752380D02*
X145550000Y-77276190D01*
X145311904Y-77752380D02*
X145311904Y-76752380D01*
X145692857Y-76752380D01*
X145788095Y-76800000D01*
X145835714Y-76847619D01*
X145883333Y-76942857D01*
X145883333Y-77085714D01*
X145835714Y-77180952D01*
X145788095Y-77228571D01*
X145692857Y-77276190D01*
X145311904Y-77276190D01*
X146216666Y-76752380D02*
X146835714Y-76752380D01*
X146502380Y-77133333D01*
X146645238Y-77133333D01*
X146740476Y-77180952D01*
X146788095Y-77228571D01*
X146835714Y-77323809D01*
X146835714Y-77561904D01*
X146788095Y-77657142D01*
X146740476Y-77704761D01*
X146645238Y-77752380D01*
X146359523Y-77752380D01*
X146264285Y-77704761D01*
X146216666Y-77657142D01*
%TO.C,R4*%
X139533333Y-73012380D02*
X139200000Y-72536190D01*
X138961904Y-73012380D02*
X138961904Y-72012380D01*
X139342857Y-72012380D01*
X139438095Y-72060000D01*
X139485714Y-72107619D01*
X139533333Y-72202857D01*
X139533333Y-72345714D01*
X139485714Y-72440952D01*
X139438095Y-72488571D01*
X139342857Y-72536190D01*
X138961904Y-72536190D01*
X140390476Y-72345714D02*
X140390476Y-73012380D01*
X140152380Y-71964761D02*
X139914285Y-72679047D01*
X140533333Y-72679047D01*
%TO.C,U1*%
X146562380Y-85851904D02*
X147371904Y-85851904D01*
X147467142Y-85804285D01*
X147514761Y-85756666D01*
X147562380Y-85661428D01*
X147562380Y-85470952D01*
X147514761Y-85375714D01*
X147467142Y-85328095D01*
X147371904Y-85280476D01*
X146562380Y-85280476D01*
X147562380Y-84280476D02*
X147562380Y-84851904D01*
X147562380Y-84566190D02*
X146562380Y-84566190D01*
X146705238Y-84661428D01*
X146800476Y-84756666D01*
X146848095Y-84851904D01*
%TD*%
M02*
