%TF.GenerationSoftware,KiCad,Pcbnew,(5.1.6-0-10_14)*%
%TF.CreationDate,2020-10-03T02:43:04-05:00*%
%TF.ProjectId,usbc-power,75736263-2d70-46f7-9765-722e6b696361,rev?*%
%TF.SameCoordinates,Original*%
%TF.FileFunction,Profile,NP*%
%FSLAX46Y46*%
G04 Gerber Fmt 4.6, Leading zero omitted, Abs format (unit mm)*
G04 Created by KiCad (PCBNEW (5.1.6-0-10_14)) date 2020-10-03 02:43:04*
%MOMM*%
%LPD*%
G01*
G04 APERTURE LIST*
%TA.AperFunction,Profile*%
%ADD10C,0.050000*%
%TD*%
%TA.AperFunction,Profile*%
%ADD11C,0.100000*%
%TD*%
G04 APERTURE END LIST*
D10*
X119380000Y-68580000D02*
X120650000Y-68580000D01*
X119380000Y-69850000D02*
X119380000Y-68580000D01*
X119380000Y-100330000D02*
X119380000Y-99060000D01*
X120650000Y-100330000D02*
X119380000Y-100330000D01*
X157480000Y-99060000D02*
X157480000Y-100330000D01*
X157480000Y-68580000D02*
X157480000Y-69850000D01*
X119380000Y-69850000D02*
X119380000Y-99060000D01*
X157480000Y-68580000D02*
X120650000Y-68580000D01*
X120650000Y-100330000D02*
X157480000Y-100330000D01*
X157480000Y-99060000D02*
X157480000Y-69850000D01*
D11*
%TO.C,J1*%
X155280000Y-80730000D02*
X154580000Y-80730000D01*
X154580000Y-81230000D02*
X155280000Y-81230000D01*
X155280000Y-89370000D02*
X154580000Y-89370000D01*
X154580000Y-89870000D02*
X155280000Y-89870000D01*
X151480000Y-80730000D02*
X150780000Y-80730000D01*
X150780000Y-81230000D02*
X151480000Y-81230000D01*
X151480000Y-89370000D02*
X150780000Y-89370000D01*
X150780000Y-89870000D02*
X151480000Y-89870000D01*
X151480000Y-89870000D02*
G75*
G03*
X151730000Y-89620000I0J250000D01*
G01*
X151730000Y-89620000D02*
G75*
G03*
X151480000Y-89370000I-250000J0D01*
G01*
X150780000Y-89370000D02*
G75*
G03*
X150530000Y-89620000I0J-250000D01*
G01*
X150530000Y-89620000D02*
G75*
G03*
X150780000Y-89870000I250000J0D01*
G01*
X151480000Y-81230000D02*
G75*
G03*
X151730000Y-80980000I0J250000D01*
G01*
X151730000Y-80980000D02*
G75*
G03*
X151480000Y-80730000I-250000J0D01*
G01*
X150780000Y-80730000D02*
G75*
G03*
X150530000Y-80980000I0J-250000D01*
G01*
X150530000Y-80980000D02*
G75*
G03*
X150780000Y-81230000I250000J0D01*
G01*
X155280000Y-89870000D02*
G75*
G03*
X155530000Y-89620000I0J250000D01*
G01*
X155530000Y-89620000D02*
G75*
G03*
X155280000Y-89370000I-250000J0D01*
G01*
X154580000Y-89370000D02*
G75*
G03*
X154330000Y-89620000I0J-250000D01*
G01*
X154330000Y-89620000D02*
G75*
G03*
X154580000Y-89870000I250000J0D01*
G01*
X155280000Y-81230000D02*
G75*
G03*
X155530000Y-80980000I0J250000D01*
G01*
X155530000Y-80980000D02*
G75*
G03*
X155280000Y-80730000I-250000J0D01*
G01*
X154580000Y-80730000D02*
G75*
G03*
X154330000Y-80980000I0J-250000D01*
G01*
X154330000Y-80980000D02*
G75*
G03*
X154580000Y-81230000I250000J0D01*
G01*
%TD*%
M02*
