%TF.GenerationSoftware,KiCad,Pcbnew,(5.1.6-0-10_14)*%
%TF.CreationDate,2020-10-03T02:43:04-05:00*%
%TF.ProjectId,usbc-power,75736263-2d70-46f7-9765-722e6b696361,rev?*%
%TF.SameCoordinates,Original*%
%TF.FileFunction,Soldermask,Bot*%
%TF.FilePolarity,Negative*%
%FSLAX46Y46*%
G04 Gerber Fmt 4.6, Leading zero omitted, Abs format (unit mm)*
G04 Created by KiCad (PCBNEW (5.1.6-0-10_14)) date 2020-10-03 02:43:04*
%MOMM*%
%LPD*%
G01*
G04 APERTURE LIST*
%ADD10C,0.010000*%
%ADD11O,1.700000X1.700000*%
%ADD12C,1.700000*%
%ADD13C,0.600000*%
%ADD14C,1.300000*%
%ADD15R,1.300000X1.300000*%
%ADD16R,1.900000X1.900000*%
%ADD17C,1.900000*%
%ADD18R,1.700000X1.700000*%
G04 APERTURE END LIST*
D10*
%TO.C,J1*%
G36*
X154930000Y-80980000D02*
G01*
X154940000Y-80980000D01*
X154940000Y-80380000D01*
X155280000Y-80380000D01*
X155311402Y-80380822D01*
X155342717Y-80383287D01*
X155373861Y-80387387D01*
X155404747Y-80393111D01*
X155435291Y-80400445D01*
X155465410Y-80409366D01*
X155495021Y-80419852D01*
X155524042Y-80431873D01*
X155552394Y-80445396D01*
X155580000Y-80460385D01*
X155606783Y-80476798D01*
X155632671Y-80494590D01*
X155657592Y-80513712D01*
X155681478Y-80534113D01*
X155704264Y-80555736D01*
X155725887Y-80578522D01*
X155746288Y-80602408D01*
X155765410Y-80627329D01*
X155783202Y-80653217D01*
X155799615Y-80680000D01*
X155814604Y-80707606D01*
X155828127Y-80735958D01*
X155840148Y-80764979D01*
X155850634Y-80794590D01*
X155859555Y-80824709D01*
X155866889Y-80855253D01*
X155872613Y-80886139D01*
X155876713Y-80917283D01*
X155879178Y-80948598D01*
X155880000Y-80980000D01*
X155879178Y-81011402D01*
X155876713Y-81042717D01*
X155872613Y-81073861D01*
X155866889Y-81104747D01*
X155859555Y-81135291D01*
X155850634Y-81165410D01*
X155840148Y-81195021D01*
X155828127Y-81224042D01*
X155814604Y-81252394D01*
X155799615Y-81280000D01*
X155783202Y-81306783D01*
X155765410Y-81332671D01*
X155746288Y-81357592D01*
X155725887Y-81381478D01*
X155704264Y-81404264D01*
X155681478Y-81425887D01*
X155657592Y-81446288D01*
X155632671Y-81465410D01*
X155606783Y-81483202D01*
X155580000Y-81499615D01*
X155552394Y-81514604D01*
X155524042Y-81528127D01*
X155495021Y-81540148D01*
X155465410Y-81550634D01*
X155435291Y-81559555D01*
X155404747Y-81566889D01*
X155373861Y-81572613D01*
X155342717Y-81576713D01*
X155311402Y-81579178D01*
X155280000Y-81580000D01*
X154580000Y-81580000D01*
X154548598Y-81579178D01*
X154517283Y-81576713D01*
X154486139Y-81572613D01*
X154455253Y-81566889D01*
X154424709Y-81559555D01*
X154394590Y-81550634D01*
X154364979Y-81540148D01*
X154335958Y-81528127D01*
X154307606Y-81514604D01*
X154280000Y-81499615D01*
X154253217Y-81483202D01*
X154227329Y-81465410D01*
X154202408Y-81446288D01*
X154178522Y-81425887D01*
X154155736Y-81404264D01*
X154134113Y-81381478D01*
X154113712Y-81357592D01*
X154094590Y-81332671D01*
X154076798Y-81306783D01*
X154060385Y-81280000D01*
X154045396Y-81252394D01*
X154031873Y-81224042D01*
X154019852Y-81195021D01*
X154009366Y-81165410D01*
X154000445Y-81135291D01*
X153993111Y-81104747D01*
X153987387Y-81073861D01*
X153983287Y-81042717D01*
X153980822Y-81011402D01*
X153980000Y-80980000D01*
X153980822Y-80948598D01*
X153983287Y-80917283D01*
X153987387Y-80886139D01*
X153993111Y-80855253D01*
X154000445Y-80824709D01*
X154009366Y-80794590D01*
X154019852Y-80764979D01*
X154031873Y-80735958D01*
X154045396Y-80707606D01*
X154060385Y-80680000D01*
X154076798Y-80653217D01*
X154094590Y-80627329D01*
X154113712Y-80602408D01*
X154134113Y-80578522D01*
X154155736Y-80555736D01*
X154178522Y-80534113D01*
X154202408Y-80513712D01*
X154227329Y-80494590D01*
X154253217Y-80476798D01*
X154280000Y-80460385D01*
X154307606Y-80445396D01*
X154335958Y-80431873D01*
X154364979Y-80419852D01*
X154394590Y-80409366D01*
X154424709Y-80400445D01*
X154455253Y-80393111D01*
X154486139Y-80387387D01*
X154517283Y-80383287D01*
X154548598Y-80380822D01*
X154580000Y-80380000D01*
X154930000Y-80380000D01*
X154930000Y-80980000D01*
G37*
X154930000Y-80980000D02*
X154940000Y-80980000D01*
X154940000Y-80380000D01*
X155280000Y-80380000D01*
X155311402Y-80380822D01*
X155342717Y-80383287D01*
X155373861Y-80387387D01*
X155404747Y-80393111D01*
X155435291Y-80400445D01*
X155465410Y-80409366D01*
X155495021Y-80419852D01*
X155524042Y-80431873D01*
X155552394Y-80445396D01*
X155580000Y-80460385D01*
X155606783Y-80476798D01*
X155632671Y-80494590D01*
X155657592Y-80513712D01*
X155681478Y-80534113D01*
X155704264Y-80555736D01*
X155725887Y-80578522D01*
X155746288Y-80602408D01*
X155765410Y-80627329D01*
X155783202Y-80653217D01*
X155799615Y-80680000D01*
X155814604Y-80707606D01*
X155828127Y-80735958D01*
X155840148Y-80764979D01*
X155850634Y-80794590D01*
X155859555Y-80824709D01*
X155866889Y-80855253D01*
X155872613Y-80886139D01*
X155876713Y-80917283D01*
X155879178Y-80948598D01*
X155880000Y-80980000D01*
X155879178Y-81011402D01*
X155876713Y-81042717D01*
X155872613Y-81073861D01*
X155866889Y-81104747D01*
X155859555Y-81135291D01*
X155850634Y-81165410D01*
X155840148Y-81195021D01*
X155828127Y-81224042D01*
X155814604Y-81252394D01*
X155799615Y-81280000D01*
X155783202Y-81306783D01*
X155765410Y-81332671D01*
X155746288Y-81357592D01*
X155725887Y-81381478D01*
X155704264Y-81404264D01*
X155681478Y-81425887D01*
X155657592Y-81446288D01*
X155632671Y-81465410D01*
X155606783Y-81483202D01*
X155580000Y-81499615D01*
X155552394Y-81514604D01*
X155524042Y-81528127D01*
X155495021Y-81540148D01*
X155465410Y-81550634D01*
X155435291Y-81559555D01*
X155404747Y-81566889D01*
X155373861Y-81572613D01*
X155342717Y-81576713D01*
X155311402Y-81579178D01*
X155280000Y-81580000D01*
X154580000Y-81580000D01*
X154548598Y-81579178D01*
X154517283Y-81576713D01*
X154486139Y-81572613D01*
X154455253Y-81566889D01*
X154424709Y-81559555D01*
X154394590Y-81550634D01*
X154364979Y-81540148D01*
X154335958Y-81528127D01*
X154307606Y-81514604D01*
X154280000Y-81499615D01*
X154253217Y-81483202D01*
X154227329Y-81465410D01*
X154202408Y-81446288D01*
X154178522Y-81425887D01*
X154155736Y-81404264D01*
X154134113Y-81381478D01*
X154113712Y-81357592D01*
X154094590Y-81332671D01*
X154076798Y-81306783D01*
X154060385Y-81280000D01*
X154045396Y-81252394D01*
X154031873Y-81224042D01*
X154019852Y-81195021D01*
X154009366Y-81165410D01*
X154000445Y-81135291D01*
X153993111Y-81104747D01*
X153987387Y-81073861D01*
X153983287Y-81042717D01*
X153980822Y-81011402D01*
X153980000Y-80980000D01*
X153980822Y-80948598D01*
X153983287Y-80917283D01*
X153987387Y-80886139D01*
X153993111Y-80855253D01*
X154000445Y-80824709D01*
X154009366Y-80794590D01*
X154019852Y-80764979D01*
X154031873Y-80735958D01*
X154045396Y-80707606D01*
X154060385Y-80680000D01*
X154076798Y-80653217D01*
X154094590Y-80627329D01*
X154113712Y-80602408D01*
X154134113Y-80578522D01*
X154155736Y-80555736D01*
X154178522Y-80534113D01*
X154202408Y-80513712D01*
X154227329Y-80494590D01*
X154253217Y-80476798D01*
X154280000Y-80460385D01*
X154307606Y-80445396D01*
X154335958Y-80431873D01*
X154364979Y-80419852D01*
X154394590Y-80409366D01*
X154424709Y-80400445D01*
X154455253Y-80393111D01*
X154486139Y-80387387D01*
X154517283Y-80383287D01*
X154548598Y-80380822D01*
X154580000Y-80380000D01*
X154930000Y-80380000D01*
X154930000Y-80980000D01*
G36*
X154930000Y-89620000D02*
G01*
X154940000Y-89620000D01*
X154940000Y-89020000D01*
X155280000Y-89020000D01*
X155311402Y-89020822D01*
X155342717Y-89023287D01*
X155373861Y-89027387D01*
X155404747Y-89033111D01*
X155435291Y-89040445D01*
X155465410Y-89049366D01*
X155495021Y-89059852D01*
X155524042Y-89071873D01*
X155552394Y-89085396D01*
X155580000Y-89100385D01*
X155606783Y-89116798D01*
X155632671Y-89134590D01*
X155657592Y-89153712D01*
X155681478Y-89174113D01*
X155704264Y-89195736D01*
X155725887Y-89218522D01*
X155746288Y-89242408D01*
X155765410Y-89267329D01*
X155783202Y-89293217D01*
X155799615Y-89320000D01*
X155814604Y-89347606D01*
X155828127Y-89375958D01*
X155840148Y-89404979D01*
X155850634Y-89434590D01*
X155859555Y-89464709D01*
X155866889Y-89495253D01*
X155872613Y-89526139D01*
X155876713Y-89557283D01*
X155879178Y-89588598D01*
X155880000Y-89620000D01*
X155879178Y-89651402D01*
X155876713Y-89682717D01*
X155872613Y-89713861D01*
X155866889Y-89744747D01*
X155859555Y-89775291D01*
X155850634Y-89805410D01*
X155840148Y-89835021D01*
X155828127Y-89864042D01*
X155814604Y-89892394D01*
X155799615Y-89920000D01*
X155783202Y-89946783D01*
X155765410Y-89972671D01*
X155746288Y-89997592D01*
X155725887Y-90021478D01*
X155704264Y-90044264D01*
X155681478Y-90065887D01*
X155657592Y-90086288D01*
X155632671Y-90105410D01*
X155606783Y-90123202D01*
X155580000Y-90139615D01*
X155552394Y-90154604D01*
X155524042Y-90168127D01*
X155495021Y-90180148D01*
X155465410Y-90190634D01*
X155435291Y-90199555D01*
X155404747Y-90206889D01*
X155373861Y-90212613D01*
X155342717Y-90216713D01*
X155311402Y-90219178D01*
X155280000Y-90220000D01*
X154580000Y-90220000D01*
X154548598Y-90219178D01*
X154517283Y-90216713D01*
X154486139Y-90212613D01*
X154455253Y-90206889D01*
X154424709Y-90199555D01*
X154394590Y-90190634D01*
X154364979Y-90180148D01*
X154335958Y-90168127D01*
X154307606Y-90154604D01*
X154280000Y-90139615D01*
X154253217Y-90123202D01*
X154227329Y-90105410D01*
X154202408Y-90086288D01*
X154178522Y-90065887D01*
X154155736Y-90044264D01*
X154134113Y-90021478D01*
X154113712Y-89997592D01*
X154094590Y-89972671D01*
X154076798Y-89946783D01*
X154060385Y-89920000D01*
X154045396Y-89892394D01*
X154031873Y-89864042D01*
X154019852Y-89835021D01*
X154009366Y-89805410D01*
X154000445Y-89775291D01*
X153993111Y-89744747D01*
X153987387Y-89713861D01*
X153983287Y-89682717D01*
X153980822Y-89651402D01*
X153980000Y-89620000D01*
X153980822Y-89588598D01*
X153983287Y-89557283D01*
X153987387Y-89526139D01*
X153993111Y-89495253D01*
X154000445Y-89464709D01*
X154009366Y-89434590D01*
X154019852Y-89404979D01*
X154031873Y-89375958D01*
X154045396Y-89347606D01*
X154060385Y-89320000D01*
X154076798Y-89293217D01*
X154094590Y-89267329D01*
X154113712Y-89242408D01*
X154134113Y-89218522D01*
X154155736Y-89195736D01*
X154178522Y-89174113D01*
X154202408Y-89153712D01*
X154227329Y-89134590D01*
X154253217Y-89116798D01*
X154280000Y-89100385D01*
X154307606Y-89085396D01*
X154335958Y-89071873D01*
X154364979Y-89059852D01*
X154394590Y-89049366D01*
X154424709Y-89040445D01*
X154455253Y-89033111D01*
X154486139Y-89027387D01*
X154517283Y-89023287D01*
X154548598Y-89020822D01*
X154580000Y-89020000D01*
X154930000Y-89020000D01*
X154930000Y-89620000D01*
G37*
X154930000Y-89620000D02*
X154940000Y-89620000D01*
X154940000Y-89020000D01*
X155280000Y-89020000D01*
X155311402Y-89020822D01*
X155342717Y-89023287D01*
X155373861Y-89027387D01*
X155404747Y-89033111D01*
X155435291Y-89040445D01*
X155465410Y-89049366D01*
X155495021Y-89059852D01*
X155524042Y-89071873D01*
X155552394Y-89085396D01*
X155580000Y-89100385D01*
X155606783Y-89116798D01*
X155632671Y-89134590D01*
X155657592Y-89153712D01*
X155681478Y-89174113D01*
X155704264Y-89195736D01*
X155725887Y-89218522D01*
X155746288Y-89242408D01*
X155765410Y-89267329D01*
X155783202Y-89293217D01*
X155799615Y-89320000D01*
X155814604Y-89347606D01*
X155828127Y-89375958D01*
X155840148Y-89404979D01*
X155850634Y-89434590D01*
X155859555Y-89464709D01*
X155866889Y-89495253D01*
X155872613Y-89526139D01*
X155876713Y-89557283D01*
X155879178Y-89588598D01*
X155880000Y-89620000D01*
X155879178Y-89651402D01*
X155876713Y-89682717D01*
X155872613Y-89713861D01*
X155866889Y-89744747D01*
X155859555Y-89775291D01*
X155850634Y-89805410D01*
X155840148Y-89835021D01*
X155828127Y-89864042D01*
X155814604Y-89892394D01*
X155799615Y-89920000D01*
X155783202Y-89946783D01*
X155765410Y-89972671D01*
X155746288Y-89997592D01*
X155725887Y-90021478D01*
X155704264Y-90044264D01*
X155681478Y-90065887D01*
X155657592Y-90086288D01*
X155632671Y-90105410D01*
X155606783Y-90123202D01*
X155580000Y-90139615D01*
X155552394Y-90154604D01*
X155524042Y-90168127D01*
X155495021Y-90180148D01*
X155465410Y-90190634D01*
X155435291Y-90199555D01*
X155404747Y-90206889D01*
X155373861Y-90212613D01*
X155342717Y-90216713D01*
X155311402Y-90219178D01*
X155280000Y-90220000D01*
X154580000Y-90220000D01*
X154548598Y-90219178D01*
X154517283Y-90216713D01*
X154486139Y-90212613D01*
X154455253Y-90206889D01*
X154424709Y-90199555D01*
X154394590Y-90190634D01*
X154364979Y-90180148D01*
X154335958Y-90168127D01*
X154307606Y-90154604D01*
X154280000Y-90139615D01*
X154253217Y-90123202D01*
X154227329Y-90105410D01*
X154202408Y-90086288D01*
X154178522Y-90065887D01*
X154155736Y-90044264D01*
X154134113Y-90021478D01*
X154113712Y-89997592D01*
X154094590Y-89972671D01*
X154076798Y-89946783D01*
X154060385Y-89920000D01*
X154045396Y-89892394D01*
X154031873Y-89864042D01*
X154019852Y-89835021D01*
X154009366Y-89805410D01*
X154000445Y-89775291D01*
X153993111Y-89744747D01*
X153987387Y-89713861D01*
X153983287Y-89682717D01*
X153980822Y-89651402D01*
X153980000Y-89620000D01*
X153980822Y-89588598D01*
X153983287Y-89557283D01*
X153987387Y-89526139D01*
X153993111Y-89495253D01*
X154000445Y-89464709D01*
X154009366Y-89434590D01*
X154019852Y-89404979D01*
X154031873Y-89375958D01*
X154045396Y-89347606D01*
X154060385Y-89320000D01*
X154076798Y-89293217D01*
X154094590Y-89267329D01*
X154113712Y-89242408D01*
X154134113Y-89218522D01*
X154155736Y-89195736D01*
X154178522Y-89174113D01*
X154202408Y-89153712D01*
X154227329Y-89134590D01*
X154253217Y-89116798D01*
X154280000Y-89100385D01*
X154307606Y-89085396D01*
X154335958Y-89071873D01*
X154364979Y-89059852D01*
X154394590Y-89049366D01*
X154424709Y-89040445D01*
X154455253Y-89033111D01*
X154486139Y-89027387D01*
X154517283Y-89023287D01*
X154548598Y-89020822D01*
X154580000Y-89020000D01*
X154930000Y-89020000D01*
X154930000Y-89620000D01*
G36*
X151130000Y-80980000D02*
G01*
X151140000Y-80980000D01*
X151140000Y-80380000D01*
X151480000Y-80380000D01*
X151511402Y-80380822D01*
X151542717Y-80383287D01*
X151573861Y-80387387D01*
X151604747Y-80393111D01*
X151635291Y-80400445D01*
X151665410Y-80409366D01*
X151695021Y-80419852D01*
X151724042Y-80431873D01*
X151752394Y-80445396D01*
X151780000Y-80460385D01*
X151806783Y-80476798D01*
X151832671Y-80494590D01*
X151857592Y-80513712D01*
X151881478Y-80534113D01*
X151904264Y-80555736D01*
X151925887Y-80578522D01*
X151946288Y-80602408D01*
X151965410Y-80627329D01*
X151983202Y-80653217D01*
X151999615Y-80680000D01*
X152014604Y-80707606D01*
X152028127Y-80735958D01*
X152040148Y-80764979D01*
X152050634Y-80794590D01*
X152059555Y-80824709D01*
X152066889Y-80855253D01*
X152072613Y-80886139D01*
X152076713Y-80917283D01*
X152079178Y-80948598D01*
X152080000Y-80980000D01*
X152079178Y-81011402D01*
X152076713Y-81042717D01*
X152072613Y-81073861D01*
X152066889Y-81104747D01*
X152059555Y-81135291D01*
X152050634Y-81165410D01*
X152040148Y-81195021D01*
X152028127Y-81224042D01*
X152014604Y-81252394D01*
X151999615Y-81280000D01*
X151983202Y-81306783D01*
X151965410Y-81332671D01*
X151946288Y-81357592D01*
X151925887Y-81381478D01*
X151904264Y-81404264D01*
X151881478Y-81425887D01*
X151857592Y-81446288D01*
X151832671Y-81465410D01*
X151806783Y-81483202D01*
X151780000Y-81499615D01*
X151752394Y-81514604D01*
X151724042Y-81528127D01*
X151695021Y-81540148D01*
X151665410Y-81550634D01*
X151635291Y-81559555D01*
X151604747Y-81566889D01*
X151573861Y-81572613D01*
X151542717Y-81576713D01*
X151511402Y-81579178D01*
X151480000Y-81580000D01*
X150780000Y-81580000D01*
X150748598Y-81579178D01*
X150717283Y-81576713D01*
X150686139Y-81572613D01*
X150655253Y-81566889D01*
X150624709Y-81559555D01*
X150594590Y-81550634D01*
X150564979Y-81540148D01*
X150535958Y-81528127D01*
X150507606Y-81514604D01*
X150480000Y-81499615D01*
X150453217Y-81483202D01*
X150427329Y-81465410D01*
X150402408Y-81446288D01*
X150378522Y-81425887D01*
X150355736Y-81404264D01*
X150334113Y-81381478D01*
X150313712Y-81357592D01*
X150294590Y-81332671D01*
X150276798Y-81306783D01*
X150260385Y-81280000D01*
X150245396Y-81252394D01*
X150231873Y-81224042D01*
X150219852Y-81195021D01*
X150209366Y-81165410D01*
X150200445Y-81135291D01*
X150193111Y-81104747D01*
X150187387Y-81073861D01*
X150183287Y-81042717D01*
X150180822Y-81011402D01*
X150180000Y-80980000D01*
X150180822Y-80948598D01*
X150183287Y-80917283D01*
X150187387Y-80886139D01*
X150193111Y-80855253D01*
X150200445Y-80824709D01*
X150209366Y-80794590D01*
X150219852Y-80764979D01*
X150231873Y-80735958D01*
X150245396Y-80707606D01*
X150260385Y-80680000D01*
X150276798Y-80653217D01*
X150294590Y-80627329D01*
X150313712Y-80602408D01*
X150334113Y-80578522D01*
X150355736Y-80555736D01*
X150378522Y-80534113D01*
X150402408Y-80513712D01*
X150427329Y-80494590D01*
X150453217Y-80476798D01*
X150480000Y-80460385D01*
X150507606Y-80445396D01*
X150535958Y-80431873D01*
X150564979Y-80419852D01*
X150594590Y-80409366D01*
X150624709Y-80400445D01*
X150655253Y-80393111D01*
X150686139Y-80387387D01*
X150717283Y-80383287D01*
X150748598Y-80380822D01*
X150780000Y-80380000D01*
X151130000Y-80380000D01*
X151130000Y-80980000D01*
G37*
X151130000Y-80980000D02*
X151140000Y-80980000D01*
X151140000Y-80380000D01*
X151480000Y-80380000D01*
X151511402Y-80380822D01*
X151542717Y-80383287D01*
X151573861Y-80387387D01*
X151604747Y-80393111D01*
X151635291Y-80400445D01*
X151665410Y-80409366D01*
X151695021Y-80419852D01*
X151724042Y-80431873D01*
X151752394Y-80445396D01*
X151780000Y-80460385D01*
X151806783Y-80476798D01*
X151832671Y-80494590D01*
X151857592Y-80513712D01*
X151881478Y-80534113D01*
X151904264Y-80555736D01*
X151925887Y-80578522D01*
X151946288Y-80602408D01*
X151965410Y-80627329D01*
X151983202Y-80653217D01*
X151999615Y-80680000D01*
X152014604Y-80707606D01*
X152028127Y-80735958D01*
X152040148Y-80764979D01*
X152050634Y-80794590D01*
X152059555Y-80824709D01*
X152066889Y-80855253D01*
X152072613Y-80886139D01*
X152076713Y-80917283D01*
X152079178Y-80948598D01*
X152080000Y-80980000D01*
X152079178Y-81011402D01*
X152076713Y-81042717D01*
X152072613Y-81073861D01*
X152066889Y-81104747D01*
X152059555Y-81135291D01*
X152050634Y-81165410D01*
X152040148Y-81195021D01*
X152028127Y-81224042D01*
X152014604Y-81252394D01*
X151999615Y-81280000D01*
X151983202Y-81306783D01*
X151965410Y-81332671D01*
X151946288Y-81357592D01*
X151925887Y-81381478D01*
X151904264Y-81404264D01*
X151881478Y-81425887D01*
X151857592Y-81446288D01*
X151832671Y-81465410D01*
X151806783Y-81483202D01*
X151780000Y-81499615D01*
X151752394Y-81514604D01*
X151724042Y-81528127D01*
X151695021Y-81540148D01*
X151665410Y-81550634D01*
X151635291Y-81559555D01*
X151604747Y-81566889D01*
X151573861Y-81572613D01*
X151542717Y-81576713D01*
X151511402Y-81579178D01*
X151480000Y-81580000D01*
X150780000Y-81580000D01*
X150748598Y-81579178D01*
X150717283Y-81576713D01*
X150686139Y-81572613D01*
X150655253Y-81566889D01*
X150624709Y-81559555D01*
X150594590Y-81550634D01*
X150564979Y-81540148D01*
X150535958Y-81528127D01*
X150507606Y-81514604D01*
X150480000Y-81499615D01*
X150453217Y-81483202D01*
X150427329Y-81465410D01*
X150402408Y-81446288D01*
X150378522Y-81425887D01*
X150355736Y-81404264D01*
X150334113Y-81381478D01*
X150313712Y-81357592D01*
X150294590Y-81332671D01*
X150276798Y-81306783D01*
X150260385Y-81280000D01*
X150245396Y-81252394D01*
X150231873Y-81224042D01*
X150219852Y-81195021D01*
X150209366Y-81165410D01*
X150200445Y-81135291D01*
X150193111Y-81104747D01*
X150187387Y-81073861D01*
X150183287Y-81042717D01*
X150180822Y-81011402D01*
X150180000Y-80980000D01*
X150180822Y-80948598D01*
X150183287Y-80917283D01*
X150187387Y-80886139D01*
X150193111Y-80855253D01*
X150200445Y-80824709D01*
X150209366Y-80794590D01*
X150219852Y-80764979D01*
X150231873Y-80735958D01*
X150245396Y-80707606D01*
X150260385Y-80680000D01*
X150276798Y-80653217D01*
X150294590Y-80627329D01*
X150313712Y-80602408D01*
X150334113Y-80578522D01*
X150355736Y-80555736D01*
X150378522Y-80534113D01*
X150402408Y-80513712D01*
X150427329Y-80494590D01*
X150453217Y-80476798D01*
X150480000Y-80460385D01*
X150507606Y-80445396D01*
X150535958Y-80431873D01*
X150564979Y-80419852D01*
X150594590Y-80409366D01*
X150624709Y-80400445D01*
X150655253Y-80393111D01*
X150686139Y-80387387D01*
X150717283Y-80383287D01*
X150748598Y-80380822D01*
X150780000Y-80380000D01*
X151130000Y-80380000D01*
X151130000Y-80980000D01*
G36*
X151130000Y-89620000D02*
G01*
X151140000Y-89620000D01*
X151140000Y-89020000D01*
X151480000Y-89020000D01*
X151511402Y-89020822D01*
X151542717Y-89023287D01*
X151573861Y-89027387D01*
X151604747Y-89033111D01*
X151635291Y-89040445D01*
X151665410Y-89049366D01*
X151695021Y-89059852D01*
X151724042Y-89071873D01*
X151752394Y-89085396D01*
X151780000Y-89100385D01*
X151806783Y-89116798D01*
X151832671Y-89134590D01*
X151857592Y-89153712D01*
X151881478Y-89174113D01*
X151904264Y-89195736D01*
X151925887Y-89218522D01*
X151946288Y-89242408D01*
X151965410Y-89267329D01*
X151983202Y-89293217D01*
X151999615Y-89320000D01*
X152014604Y-89347606D01*
X152028127Y-89375958D01*
X152040148Y-89404979D01*
X152050634Y-89434590D01*
X152059555Y-89464709D01*
X152066889Y-89495253D01*
X152072613Y-89526139D01*
X152076713Y-89557283D01*
X152079178Y-89588598D01*
X152080000Y-89620000D01*
X152079178Y-89651402D01*
X152076713Y-89682717D01*
X152072613Y-89713861D01*
X152066889Y-89744747D01*
X152059555Y-89775291D01*
X152050634Y-89805410D01*
X152040148Y-89835021D01*
X152028127Y-89864042D01*
X152014604Y-89892394D01*
X151999615Y-89920000D01*
X151983202Y-89946783D01*
X151965410Y-89972671D01*
X151946288Y-89997592D01*
X151925887Y-90021478D01*
X151904264Y-90044264D01*
X151881478Y-90065887D01*
X151857592Y-90086288D01*
X151832671Y-90105410D01*
X151806783Y-90123202D01*
X151780000Y-90139615D01*
X151752394Y-90154604D01*
X151724042Y-90168127D01*
X151695021Y-90180148D01*
X151665410Y-90190634D01*
X151635291Y-90199555D01*
X151604747Y-90206889D01*
X151573861Y-90212613D01*
X151542717Y-90216713D01*
X151511402Y-90219178D01*
X151480000Y-90220000D01*
X150780000Y-90220000D01*
X150748598Y-90219178D01*
X150717283Y-90216713D01*
X150686139Y-90212613D01*
X150655253Y-90206889D01*
X150624709Y-90199555D01*
X150594590Y-90190634D01*
X150564979Y-90180148D01*
X150535958Y-90168127D01*
X150507606Y-90154604D01*
X150480000Y-90139615D01*
X150453217Y-90123202D01*
X150427329Y-90105410D01*
X150402408Y-90086288D01*
X150378522Y-90065887D01*
X150355736Y-90044264D01*
X150334113Y-90021478D01*
X150313712Y-89997592D01*
X150294590Y-89972671D01*
X150276798Y-89946783D01*
X150260385Y-89920000D01*
X150245396Y-89892394D01*
X150231873Y-89864042D01*
X150219852Y-89835021D01*
X150209366Y-89805410D01*
X150200445Y-89775291D01*
X150193111Y-89744747D01*
X150187387Y-89713861D01*
X150183287Y-89682717D01*
X150180822Y-89651402D01*
X150180000Y-89620000D01*
X150180822Y-89588598D01*
X150183287Y-89557283D01*
X150187387Y-89526139D01*
X150193111Y-89495253D01*
X150200445Y-89464709D01*
X150209366Y-89434590D01*
X150219852Y-89404979D01*
X150231873Y-89375958D01*
X150245396Y-89347606D01*
X150260385Y-89320000D01*
X150276798Y-89293217D01*
X150294590Y-89267329D01*
X150313712Y-89242408D01*
X150334113Y-89218522D01*
X150355736Y-89195736D01*
X150378522Y-89174113D01*
X150402408Y-89153712D01*
X150427329Y-89134590D01*
X150453217Y-89116798D01*
X150480000Y-89100385D01*
X150507606Y-89085396D01*
X150535958Y-89071873D01*
X150564979Y-89059852D01*
X150594590Y-89049366D01*
X150624709Y-89040445D01*
X150655253Y-89033111D01*
X150686139Y-89027387D01*
X150717283Y-89023287D01*
X150748598Y-89020822D01*
X150780000Y-89020000D01*
X151130000Y-89020000D01*
X151130000Y-89620000D01*
G37*
X151130000Y-89620000D02*
X151140000Y-89620000D01*
X151140000Y-89020000D01*
X151480000Y-89020000D01*
X151511402Y-89020822D01*
X151542717Y-89023287D01*
X151573861Y-89027387D01*
X151604747Y-89033111D01*
X151635291Y-89040445D01*
X151665410Y-89049366D01*
X151695021Y-89059852D01*
X151724042Y-89071873D01*
X151752394Y-89085396D01*
X151780000Y-89100385D01*
X151806783Y-89116798D01*
X151832671Y-89134590D01*
X151857592Y-89153712D01*
X151881478Y-89174113D01*
X151904264Y-89195736D01*
X151925887Y-89218522D01*
X151946288Y-89242408D01*
X151965410Y-89267329D01*
X151983202Y-89293217D01*
X151999615Y-89320000D01*
X152014604Y-89347606D01*
X152028127Y-89375958D01*
X152040148Y-89404979D01*
X152050634Y-89434590D01*
X152059555Y-89464709D01*
X152066889Y-89495253D01*
X152072613Y-89526139D01*
X152076713Y-89557283D01*
X152079178Y-89588598D01*
X152080000Y-89620000D01*
X152079178Y-89651402D01*
X152076713Y-89682717D01*
X152072613Y-89713861D01*
X152066889Y-89744747D01*
X152059555Y-89775291D01*
X152050634Y-89805410D01*
X152040148Y-89835021D01*
X152028127Y-89864042D01*
X152014604Y-89892394D01*
X151999615Y-89920000D01*
X151983202Y-89946783D01*
X151965410Y-89972671D01*
X151946288Y-89997592D01*
X151925887Y-90021478D01*
X151904264Y-90044264D01*
X151881478Y-90065887D01*
X151857592Y-90086288D01*
X151832671Y-90105410D01*
X151806783Y-90123202D01*
X151780000Y-90139615D01*
X151752394Y-90154604D01*
X151724042Y-90168127D01*
X151695021Y-90180148D01*
X151665410Y-90190634D01*
X151635291Y-90199555D01*
X151604747Y-90206889D01*
X151573861Y-90212613D01*
X151542717Y-90216713D01*
X151511402Y-90219178D01*
X151480000Y-90220000D01*
X150780000Y-90220000D01*
X150748598Y-90219178D01*
X150717283Y-90216713D01*
X150686139Y-90212613D01*
X150655253Y-90206889D01*
X150624709Y-90199555D01*
X150594590Y-90190634D01*
X150564979Y-90180148D01*
X150535958Y-90168127D01*
X150507606Y-90154604D01*
X150480000Y-90139615D01*
X150453217Y-90123202D01*
X150427329Y-90105410D01*
X150402408Y-90086288D01*
X150378522Y-90065887D01*
X150355736Y-90044264D01*
X150334113Y-90021478D01*
X150313712Y-89997592D01*
X150294590Y-89972671D01*
X150276798Y-89946783D01*
X150260385Y-89920000D01*
X150245396Y-89892394D01*
X150231873Y-89864042D01*
X150219852Y-89835021D01*
X150209366Y-89805410D01*
X150200445Y-89775291D01*
X150193111Y-89744747D01*
X150187387Y-89713861D01*
X150183287Y-89682717D01*
X150180822Y-89651402D01*
X150180000Y-89620000D01*
X150180822Y-89588598D01*
X150183287Y-89557283D01*
X150187387Y-89526139D01*
X150193111Y-89495253D01*
X150200445Y-89464709D01*
X150209366Y-89434590D01*
X150219852Y-89404979D01*
X150231873Y-89375958D01*
X150245396Y-89347606D01*
X150260385Y-89320000D01*
X150276798Y-89293217D01*
X150294590Y-89267329D01*
X150313712Y-89242408D01*
X150334113Y-89218522D01*
X150355736Y-89195736D01*
X150378522Y-89174113D01*
X150402408Y-89153712D01*
X150427329Y-89134590D01*
X150453217Y-89116798D01*
X150480000Y-89100385D01*
X150507606Y-89085396D01*
X150535958Y-89071873D01*
X150564979Y-89059852D01*
X150594590Y-89049366D01*
X150624709Y-89040445D01*
X150655253Y-89033111D01*
X150686139Y-89027387D01*
X150717283Y-89023287D01*
X150748598Y-89020822D01*
X150780000Y-89020000D01*
X151130000Y-89020000D01*
X151130000Y-89620000D01*
%TD*%
D11*
%TO.C,R5*%
X125730000Y-83820000D03*
D12*
X123190000Y-83820000D03*
%TD*%
D13*
%TO.C,J1*%
X151130000Y-89620000D03*
X151130000Y-80980000D03*
X154930000Y-89620000D03*
X154930000Y-80980000D03*
%TD*%
D14*
%TO.C,C1*%
X122960000Y-93980000D03*
D15*
X124460000Y-93980000D03*
%TD*%
%TO.C,C2*%
X124460000Y-74930000D03*
D14*
X122960000Y-74930000D03*
%TD*%
D16*
%TO.C,D1*%
X130810000Y-74930000D03*
D17*
X133350000Y-74930000D03*
%TD*%
D12*
%TO.C,R1*%
X132080000Y-83820000D03*
D11*
X129540000Y-83820000D03*
%TD*%
%TO.C,R2*%
X129540000Y-93980000D03*
D12*
X129540000Y-91440000D03*
%TD*%
%TO.C,R3*%
X147320000Y-74930000D03*
D11*
X144780000Y-74930000D03*
%TD*%
%TO.C,R4*%
X140970000Y-74930000D03*
D12*
X138430000Y-74930000D03*
%TD*%
D18*
%TO.C,U1*%
X144780000Y-81280000D03*
D11*
X137160000Y-88900000D03*
X142240000Y-81280000D03*
X139700000Y-88900000D03*
X139700000Y-81280000D03*
X142240000Y-88900000D03*
X137160000Y-81280000D03*
X144780000Y-88900000D03*
%TD*%
M02*
