%TF.GenerationSoftware,KiCad,Pcbnew,(5.1.6-0-10_14)*%
%TF.CreationDate,2020-10-03T02:43:04-05:00*%
%TF.ProjectId,usbc-power,75736263-2d70-46f7-9765-722e6b696361,rev?*%
%TF.SameCoordinates,Original*%
%TF.FileFunction,Copper,L1,Top*%
%TF.FilePolarity,Positive*%
%FSLAX46Y46*%
G04 Gerber Fmt 4.6, Leading zero omitted, Abs format (unit mm)*
G04 Created by KiCad (PCBNEW (5.1.6-0-10_14)) date 2020-10-03 02:43:04*
%MOMM*%
%LPD*%
G01*
G04 APERTURE LIST*
%TA.AperFunction,EtchedComponent*%
%ADD10C,0.010000*%
%TD*%
%TA.AperFunction,ComponentPad*%
%ADD11O,1.600000X1.600000*%
%TD*%
%TA.AperFunction,ComponentPad*%
%ADD12C,1.600000*%
%TD*%
%TA.AperFunction,Conductor*%
%ADD13R,0.200000X0.200000*%
%TD*%
%TA.AperFunction,SMDPad,CuDef*%
%ADD14R,1.150000X0.700000*%
%TD*%
%TA.AperFunction,SMDPad,CuDef*%
%ADD15R,1.150000X0.800000*%
%TD*%
%TA.AperFunction,SMDPad,CuDef*%
%ADD16R,1.150000X0.900000*%
%TD*%
%TA.AperFunction,ComponentPad*%
%ADD17C,1.200000*%
%TD*%
%TA.AperFunction,ComponentPad*%
%ADD18R,1.200000X1.200000*%
%TD*%
%TA.AperFunction,ComponentPad*%
%ADD19R,1.800000X1.800000*%
%TD*%
%TA.AperFunction,ComponentPad*%
%ADD20C,1.800000*%
%TD*%
%TA.AperFunction,ComponentPad*%
%ADD21R,1.600000X1.600000*%
%TD*%
%TA.AperFunction,ViaPad*%
%ADD22C,0.800000*%
%TD*%
%TA.AperFunction,Conductor*%
%ADD23C,0.250000*%
%TD*%
G04 APERTURE END LIST*
D10*
%TO.C,J1*%
G36*
X154930000Y-80730000D02*
G01*
X154580000Y-80730000D01*
X154566916Y-80730343D01*
X154553868Y-80731370D01*
X154540891Y-80733078D01*
X154528022Y-80735463D01*
X154515295Y-80738519D01*
X154502746Y-80742236D01*
X154490408Y-80746605D01*
X154478316Y-80751614D01*
X154466502Y-80757248D01*
X154455000Y-80763494D01*
X154443840Y-80770332D01*
X154433054Y-80777746D01*
X154422670Y-80785714D01*
X154412717Y-80794214D01*
X154403223Y-80803223D01*
X154394214Y-80812717D01*
X154385714Y-80822670D01*
X154377746Y-80833054D01*
X154370332Y-80843840D01*
X154363494Y-80855000D01*
X154357248Y-80866502D01*
X154351614Y-80878316D01*
X154346605Y-80890408D01*
X154342236Y-80902746D01*
X154338519Y-80915295D01*
X154335463Y-80928022D01*
X154333078Y-80940891D01*
X154331370Y-80953868D01*
X154330343Y-80966916D01*
X154330000Y-80980000D01*
X154330343Y-80993084D01*
X154331370Y-81006132D01*
X154333078Y-81019109D01*
X154335463Y-81031978D01*
X154338519Y-81044705D01*
X154342236Y-81057254D01*
X154346605Y-81069592D01*
X154351614Y-81081684D01*
X154357248Y-81093498D01*
X154363494Y-81105000D01*
X154370332Y-81116160D01*
X154377746Y-81126946D01*
X154385714Y-81137330D01*
X154394214Y-81147283D01*
X154403223Y-81156777D01*
X154412717Y-81165786D01*
X154422670Y-81174286D01*
X154433054Y-81182254D01*
X154443840Y-81189668D01*
X154455000Y-81196506D01*
X154466502Y-81202752D01*
X154478316Y-81208386D01*
X154490408Y-81213395D01*
X154502746Y-81217764D01*
X154515295Y-81221481D01*
X154528022Y-81224537D01*
X154540891Y-81226922D01*
X154553868Y-81228630D01*
X154566916Y-81229657D01*
X154580000Y-81230000D01*
X155280000Y-81230000D01*
X155293084Y-81229657D01*
X155306132Y-81228630D01*
X155319109Y-81226922D01*
X155331978Y-81224537D01*
X155344705Y-81221481D01*
X155357254Y-81217764D01*
X155369592Y-81213395D01*
X155381684Y-81208386D01*
X155393498Y-81202752D01*
X155405000Y-81196506D01*
X155416160Y-81189668D01*
X155426946Y-81182254D01*
X155437330Y-81174286D01*
X155447283Y-81165786D01*
X155456777Y-81156777D01*
X155465786Y-81147283D01*
X155474286Y-81137330D01*
X155482254Y-81126946D01*
X155489668Y-81116160D01*
X155496506Y-81105000D01*
X155502752Y-81093498D01*
X155508386Y-81081684D01*
X155513395Y-81069592D01*
X155517764Y-81057254D01*
X155521481Y-81044705D01*
X155524537Y-81031978D01*
X155526922Y-81019109D01*
X155528630Y-81006132D01*
X155529657Y-80993084D01*
X155530000Y-80980000D01*
X155529657Y-80966916D01*
X155528630Y-80953868D01*
X155526922Y-80940891D01*
X155524537Y-80928022D01*
X155521481Y-80915295D01*
X155517764Y-80902746D01*
X155513395Y-80890408D01*
X155508386Y-80878316D01*
X155502752Y-80866502D01*
X155496506Y-80855000D01*
X155489668Y-80843840D01*
X155482254Y-80833054D01*
X155474286Y-80822670D01*
X155465786Y-80812717D01*
X155456777Y-80803223D01*
X155447283Y-80794214D01*
X155437330Y-80785714D01*
X155426946Y-80777746D01*
X155416160Y-80770332D01*
X155405000Y-80763494D01*
X155393498Y-80757248D01*
X155381684Y-80751614D01*
X155369592Y-80746605D01*
X155357254Y-80742236D01*
X155344705Y-80738519D01*
X155331978Y-80735463D01*
X155319109Y-80733078D01*
X155306132Y-80731370D01*
X155293084Y-80730343D01*
X155280000Y-80730000D01*
X154940000Y-80730000D01*
X154940000Y-80480000D01*
X155280000Y-80480000D01*
X155306168Y-80480685D01*
X155332264Y-80482739D01*
X155358217Y-80486156D01*
X155383956Y-80490926D01*
X155409410Y-80497037D01*
X155434508Y-80504472D01*
X155459184Y-80513210D01*
X155483368Y-80523227D01*
X155506995Y-80534497D01*
X155530000Y-80546987D01*
X155552320Y-80560665D01*
X155573893Y-80575492D01*
X155594660Y-80591427D01*
X155614565Y-80608428D01*
X155633553Y-80626447D01*
X155651572Y-80645435D01*
X155668573Y-80665340D01*
X155684508Y-80686107D01*
X155699335Y-80707680D01*
X155713013Y-80730000D01*
X155725503Y-80753005D01*
X155736773Y-80776632D01*
X155746790Y-80800816D01*
X155755528Y-80825492D01*
X155762963Y-80850590D01*
X155769074Y-80876044D01*
X155773844Y-80901783D01*
X155777261Y-80927736D01*
X155779315Y-80953832D01*
X155780000Y-80980000D01*
X155779315Y-81006168D01*
X155777261Y-81032264D01*
X155773844Y-81058217D01*
X155769074Y-81083956D01*
X155762963Y-81109410D01*
X155755528Y-81134508D01*
X155746790Y-81159184D01*
X155736773Y-81183368D01*
X155725503Y-81206995D01*
X155713013Y-81230000D01*
X155699335Y-81252320D01*
X155684508Y-81273893D01*
X155668573Y-81294660D01*
X155651572Y-81314565D01*
X155633553Y-81333553D01*
X155614565Y-81351572D01*
X155594660Y-81368573D01*
X155573893Y-81384508D01*
X155552320Y-81399335D01*
X155530000Y-81413013D01*
X155506995Y-81425503D01*
X155483368Y-81436773D01*
X155459184Y-81446790D01*
X155434508Y-81455528D01*
X155409410Y-81462963D01*
X155383956Y-81469074D01*
X155358217Y-81473844D01*
X155332264Y-81477261D01*
X155306168Y-81479315D01*
X155280000Y-81480000D01*
X154580000Y-81480000D01*
X154553832Y-81479315D01*
X154527736Y-81477261D01*
X154501783Y-81473844D01*
X154476044Y-81469074D01*
X154450590Y-81462963D01*
X154425492Y-81455528D01*
X154400816Y-81446790D01*
X154376632Y-81436773D01*
X154353005Y-81425503D01*
X154330000Y-81413013D01*
X154307680Y-81399335D01*
X154286107Y-81384508D01*
X154265340Y-81368573D01*
X154245435Y-81351572D01*
X154226447Y-81333553D01*
X154208428Y-81314565D01*
X154191427Y-81294660D01*
X154175492Y-81273893D01*
X154160665Y-81252320D01*
X154146987Y-81230000D01*
X154134497Y-81206995D01*
X154123227Y-81183368D01*
X154113210Y-81159184D01*
X154104472Y-81134508D01*
X154097037Y-81109410D01*
X154090926Y-81083956D01*
X154086156Y-81058217D01*
X154082739Y-81032264D01*
X154080685Y-81006168D01*
X154080000Y-80980000D01*
X154080685Y-80953832D01*
X154082739Y-80927736D01*
X154086156Y-80901783D01*
X154090926Y-80876044D01*
X154097037Y-80850590D01*
X154104472Y-80825492D01*
X154113210Y-80800816D01*
X154123227Y-80776632D01*
X154134497Y-80753005D01*
X154146987Y-80730000D01*
X154160665Y-80707680D01*
X154175492Y-80686107D01*
X154191427Y-80665340D01*
X154208428Y-80645435D01*
X154226447Y-80626447D01*
X154245435Y-80608428D01*
X154265340Y-80591427D01*
X154286107Y-80575492D01*
X154307680Y-80560665D01*
X154330000Y-80546987D01*
X154353005Y-80534497D01*
X154376632Y-80523227D01*
X154400816Y-80513210D01*
X154425492Y-80504472D01*
X154450590Y-80497037D01*
X154476044Y-80490926D01*
X154501783Y-80486156D01*
X154527736Y-80482739D01*
X154553832Y-80480685D01*
X154580000Y-80480000D01*
X154930000Y-80480000D01*
X154930000Y-80730000D01*
G37*
X154930000Y-80730000D02*
X154580000Y-80730000D01*
X154566916Y-80730343D01*
X154553868Y-80731370D01*
X154540891Y-80733078D01*
X154528022Y-80735463D01*
X154515295Y-80738519D01*
X154502746Y-80742236D01*
X154490408Y-80746605D01*
X154478316Y-80751614D01*
X154466502Y-80757248D01*
X154455000Y-80763494D01*
X154443840Y-80770332D01*
X154433054Y-80777746D01*
X154422670Y-80785714D01*
X154412717Y-80794214D01*
X154403223Y-80803223D01*
X154394214Y-80812717D01*
X154385714Y-80822670D01*
X154377746Y-80833054D01*
X154370332Y-80843840D01*
X154363494Y-80855000D01*
X154357248Y-80866502D01*
X154351614Y-80878316D01*
X154346605Y-80890408D01*
X154342236Y-80902746D01*
X154338519Y-80915295D01*
X154335463Y-80928022D01*
X154333078Y-80940891D01*
X154331370Y-80953868D01*
X154330343Y-80966916D01*
X154330000Y-80980000D01*
X154330343Y-80993084D01*
X154331370Y-81006132D01*
X154333078Y-81019109D01*
X154335463Y-81031978D01*
X154338519Y-81044705D01*
X154342236Y-81057254D01*
X154346605Y-81069592D01*
X154351614Y-81081684D01*
X154357248Y-81093498D01*
X154363494Y-81105000D01*
X154370332Y-81116160D01*
X154377746Y-81126946D01*
X154385714Y-81137330D01*
X154394214Y-81147283D01*
X154403223Y-81156777D01*
X154412717Y-81165786D01*
X154422670Y-81174286D01*
X154433054Y-81182254D01*
X154443840Y-81189668D01*
X154455000Y-81196506D01*
X154466502Y-81202752D01*
X154478316Y-81208386D01*
X154490408Y-81213395D01*
X154502746Y-81217764D01*
X154515295Y-81221481D01*
X154528022Y-81224537D01*
X154540891Y-81226922D01*
X154553868Y-81228630D01*
X154566916Y-81229657D01*
X154580000Y-81230000D01*
X155280000Y-81230000D01*
X155293084Y-81229657D01*
X155306132Y-81228630D01*
X155319109Y-81226922D01*
X155331978Y-81224537D01*
X155344705Y-81221481D01*
X155357254Y-81217764D01*
X155369592Y-81213395D01*
X155381684Y-81208386D01*
X155393498Y-81202752D01*
X155405000Y-81196506D01*
X155416160Y-81189668D01*
X155426946Y-81182254D01*
X155437330Y-81174286D01*
X155447283Y-81165786D01*
X155456777Y-81156777D01*
X155465786Y-81147283D01*
X155474286Y-81137330D01*
X155482254Y-81126946D01*
X155489668Y-81116160D01*
X155496506Y-81105000D01*
X155502752Y-81093498D01*
X155508386Y-81081684D01*
X155513395Y-81069592D01*
X155517764Y-81057254D01*
X155521481Y-81044705D01*
X155524537Y-81031978D01*
X155526922Y-81019109D01*
X155528630Y-81006132D01*
X155529657Y-80993084D01*
X155530000Y-80980000D01*
X155529657Y-80966916D01*
X155528630Y-80953868D01*
X155526922Y-80940891D01*
X155524537Y-80928022D01*
X155521481Y-80915295D01*
X155517764Y-80902746D01*
X155513395Y-80890408D01*
X155508386Y-80878316D01*
X155502752Y-80866502D01*
X155496506Y-80855000D01*
X155489668Y-80843840D01*
X155482254Y-80833054D01*
X155474286Y-80822670D01*
X155465786Y-80812717D01*
X155456777Y-80803223D01*
X155447283Y-80794214D01*
X155437330Y-80785714D01*
X155426946Y-80777746D01*
X155416160Y-80770332D01*
X155405000Y-80763494D01*
X155393498Y-80757248D01*
X155381684Y-80751614D01*
X155369592Y-80746605D01*
X155357254Y-80742236D01*
X155344705Y-80738519D01*
X155331978Y-80735463D01*
X155319109Y-80733078D01*
X155306132Y-80731370D01*
X155293084Y-80730343D01*
X155280000Y-80730000D01*
X154940000Y-80730000D01*
X154940000Y-80480000D01*
X155280000Y-80480000D01*
X155306168Y-80480685D01*
X155332264Y-80482739D01*
X155358217Y-80486156D01*
X155383956Y-80490926D01*
X155409410Y-80497037D01*
X155434508Y-80504472D01*
X155459184Y-80513210D01*
X155483368Y-80523227D01*
X155506995Y-80534497D01*
X155530000Y-80546987D01*
X155552320Y-80560665D01*
X155573893Y-80575492D01*
X155594660Y-80591427D01*
X155614565Y-80608428D01*
X155633553Y-80626447D01*
X155651572Y-80645435D01*
X155668573Y-80665340D01*
X155684508Y-80686107D01*
X155699335Y-80707680D01*
X155713013Y-80730000D01*
X155725503Y-80753005D01*
X155736773Y-80776632D01*
X155746790Y-80800816D01*
X155755528Y-80825492D01*
X155762963Y-80850590D01*
X155769074Y-80876044D01*
X155773844Y-80901783D01*
X155777261Y-80927736D01*
X155779315Y-80953832D01*
X155780000Y-80980000D01*
X155779315Y-81006168D01*
X155777261Y-81032264D01*
X155773844Y-81058217D01*
X155769074Y-81083956D01*
X155762963Y-81109410D01*
X155755528Y-81134508D01*
X155746790Y-81159184D01*
X155736773Y-81183368D01*
X155725503Y-81206995D01*
X155713013Y-81230000D01*
X155699335Y-81252320D01*
X155684508Y-81273893D01*
X155668573Y-81294660D01*
X155651572Y-81314565D01*
X155633553Y-81333553D01*
X155614565Y-81351572D01*
X155594660Y-81368573D01*
X155573893Y-81384508D01*
X155552320Y-81399335D01*
X155530000Y-81413013D01*
X155506995Y-81425503D01*
X155483368Y-81436773D01*
X155459184Y-81446790D01*
X155434508Y-81455528D01*
X155409410Y-81462963D01*
X155383956Y-81469074D01*
X155358217Y-81473844D01*
X155332264Y-81477261D01*
X155306168Y-81479315D01*
X155280000Y-81480000D01*
X154580000Y-81480000D01*
X154553832Y-81479315D01*
X154527736Y-81477261D01*
X154501783Y-81473844D01*
X154476044Y-81469074D01*
X154450590Y-81462963D01*
X154425492Y-81455528D01*
X154400816Y-81446790D01*
X154376632Y-81436773D01*
X154353005Y-81425503D01*
X154330000Y-81413013D01*
X154307680Y-81399335D01*
X154286107Y-81384508D01*
X154265340Y-81368573D01*
X154245435Y-81351572D01*
X154226447Y-81333553D01*
X154208428Y-81314565D01*
X154191427Y-81294660D01*
X154175492Y-81273893D01*
X154160665Y-81252320D01*
X154146987Y-81230000D01*
X154134497Y-81206995D01*
X154123227Y-81183368D01*
X154113210Y-81159184D01*
X154104472Y-81134508D01*
X154097037Y-81109410D01*
X154090926Y-81083956D01*
X154086156Y-81058217D01*
X154082739Y-81032264D01*
X154080685Y-81006168D01*
X154080000Y-80980000D01*
X154080685Y-80953832D01*
X154082739Y-80927736D01*
X154086156Y-80901783D01*
X154090926Y-80876044D01*
X154097037Y-80850590D01*
X154104472Y-80825492D01*
X154113210Y-80800816D01*
X154123227Y-80776632D01*
X154134497Y-80753005D01*
X154146987Y-80730000D01*
X154160665Y-80707680D01*
X154175492Y-80686107D01*
X154191427Y-80665340D01*
X154208428Y-80645435D01*
X154226447Y-80626447D01*
X154245435Y-80608428D01*
X154265340Y-80591427D01*
X154286107Y-80575492D01*
X154307680Y-80560665D01*
X154330000Y-80546987D01*
X154353005Y-80534497D01*
X154376632Y-80523227D01*
X154400816Y-80513210D01*
X154425492Y-80504472D01*
X154450590Y-80497037D01*
X154476044Y-80490926D01*
X154501783Y-80486156D01*
X154527736Y-80482739D01*
X154553832Y-80480685D01*
X154580000Y-80480000D01*
X154930000Y-80480000D01*
X154930000Y-80730000D01*
G36*
X154930000Y-89370000D02*
G01*
X154580000Y-89370000D01*
X154566916Y-89370343D01*
X154553868Y-89371370D01*
X154540891Y-89373078D01*
X154528022Y-89375463D01*
X154515295Y-89378519D01*
X154502746Y-89382236D01*
X154490408Y-89386605D01*
X154478316Y-89391614D01*
X154466502Y-89397248D01*
X154455000Y-89403494D01*
X154443840Y-89410332D01*
X154433054Y-89417746D01*
X154422670Y-89425714D01*
X154412717Y-89434214D01*
X154403223Y-89443223D01*
X154394214Y-89452717D01*
X154385714Y-89462670D01*
X154377746Y-89473054D01*
X154370332Y-89483840D01*
X154363494Y-89495000D01*
X154357248Y-89506502D01*
X154351614Y-89518316D01*
X154346605Y-89530408D01*
X154342236Y-89542746D01*
X154338519Y-89555295D01*
X154335463Y-89568022D01*
X154333078Y-89580891D01*
X154331370Y-89593868D01*
X154330343Y-89606916D01*
X154330000Y-89620000D01*
X154330343Y-89633084D01*
X154331370Y-89646132D01*
X154333078Y-89659109D01*
X154335463Y-89671978D01*
X154338519Y-89684705D01*
X154342236Y-89697254D01*
X154346605Y-89709592D01*
X154351614Y-89721684D01*
X154357248Y-89733498D01*
X154363494Y-89745000D01*
X154370332Y-89756160D01*
X154377746Y-89766946D01*
X154385714Y-89777330D01*
X154394214Y-89787283D01*
X154403223Y-89796777D01*
X154412717Y-89805786D01*
X154422670Y-89814286D01*
X154433054Y-89822254D01*
X154443840Y-89829668D01*
X154455000Y-89836506D01*
X154466502Y-89842752D01*
X154478316Y-89848386D01*
X154490408Y-89853395D01*
X154502746Y-89857764D01*
X154515295Y-89861481D01*
X154528022Y-89864537D01*
X154540891Y-89866922D01*
X154553868Y-89868630D01*
X154566916Y-89869657D01*
X154580000Y-89870000D01*
X155280000Y-89870000D01*
X155293084Y-89869657D01*
X155306132Y-89868630D01*
X155319109Y-89866922D01*
X155331978Y-89864537D01*
X155344705Y-89861481D01*
X155357254Y-89857764D01*
X155369592Y-89853395D01*
X155381684Y-89848386D01*
X155393498Y-89842752D01*
X155405000Y-89836506D01*
X155416160Y-89829668D01*
X155426946Y-89822254D01*
X155437330Y-89814286D01*
X155447283Y-89805786D01*
X155456777Y-89796777D01*
X155465786Y-89787283D01*
X155474286Y-89777330D01*
X155482254Y-89766946D01*
X155489668Y-89756160D01*
X155496506Y-89745000D01*
X155502752Y-89733498D01*
X155508386Y-89721684D01*
X155513395Y-89709592D01*
X155517764Y-89697254D01*
X155521481Y-89684705D01*
X155524537Y-89671978D01*
X155526922Y-89659109D01*
X155528630Y-89646132D01*
X155529657Y-89633084D01*
X155530000Y-89620000D01*
X155529657Y-89606916D01*
X155528630Y-89593868D01*
X155526922Y-89580891D01*
X155524537Y-89568022D01*
X155521481Y-89555295D01*
X155517764Y-89542746D01*
X155513395Y-89530408D01*
X155508386Y-89518316D01*
X155502752Y-89506502D01*
X155496506Y-89495000D01*
X155489668Y-89483840D01*
X155482254Y-89473054D01*
X155474286Y-89462670D01*
X155465786Y-89452717D01*
X155456777Y-89443223D01*
X155447283Y-89434214D01*
X155437330Y-89425714D01*
X155426946Y-89417746D01*
X155416160Y-89410332D01*
X155405000Y-89403494D01*
X155393498Y-89397248D01*
X155381684Y-89391614D01*
X155369592Y-89386605D01*
X155357254Y-89382236D01*
X155344705Y-89378519D01*
X155331978Y-89375463D01*
X155319109Y-89373078D01*
X155306132Y-89371370D01*
X155293084Y-89370343D01*
X155280000Y-89370000D01*
X154940000Y-89370000D01*
X154940000Y-89120000D01*
X155280000Y-89120000D01*
X155306168Y-89120685D01*
X155332264Y-89122739D01*
X155358217Y-89126156D01*
X155383956Y-89130926D01*
X155409410Y-89137037D01*
X155434508Y-89144472D01*
X155459184Y-89153210D01*
X155483368Y-89163227D01*
X155506995Y-89174497D01*
X155530000Y-89186987D01*
X155552320Y-89200665D01*
X155573893Y-89215492D01*
X155594660Y-89231427D01*
X155614565Y-89248428D01*
X155633553Y-89266447D01*
X155651572Y-89285435D01*
X155668573Y-89305340D01*
X155684508Y-89326107D01*
X155699335Y-89347680D01*
X155713013Y-89370000D01*
X155725503Y-89393005D01*
X155736773Y-89416632D01*
X155746790Y-89440816D01*
X155755528Y-89465492D01*
X155762963Y-89490590D01*
X155769074Y-89516044D01*
X155773844Y-89541783D01*
X155777261Y-89567736D01*
X155779315Y-89593832D01*
X155780000Y-89620000D01*
X155779315Y-89646168D01*
X155777261Y-89672264D01*
X155773844Y-89698217D01*
X155769074Y-89723956D01*
X155762963Y-89749410D01*
X155755528Y-89774508D01*
X155746790Y-89799184D01*
X155736773Y-89823368D01*
X155725503Y-89846995D01*
X155713013Y-89870000D01*
X155699335Y-89892320D01*
X155684508Y-89913893D01*
X155668573Y-89934660D01*
X155651572Y-89954565D01*
X155633553Y-89973553D01*
X155614565Y-89991572D01*
X155594660Y-90008573D01*
X155573893Y-90024508D01*
X155552320Y-90039335D01*
X155530000Y-90053013D01*
X155506995Y-90065503D01*
X155483368Y-90076773D01*
X155459184Y-90086790D01*
X155434508Y-90095528D01*
X155409410Y-90102963D01*
X155383956Y-90109074D01*
X155358217Y-90113844D01*
X155332264Y-90117261D01*
X155306168Y-90119315D01*
X155280000Y-90120000D01*
X154580000Y-90120000D01*
X154553832Y-90119315D01*
X154527736Y-90117261D01*
X154501783Y-90113844D01*
X154476044Y-90109074D01*
X154450590Y-90102963D01*
X154425492Y-90095528D01*
X154400816Y-90086790D01*
X154376632Y-90076773D01*
X154353005Y-90065503D01*
X154330000Y-90053013D01*
X154307680Y-90039335D01*
X154286107Y-90024508D01*
X154265340Y-90008573D01*
X154245435Y-89991572D01*
X154226447Y-89973553D01*
X154208428Y-89954565D01*
X154191427Y-89934660D01*
X154175492Y-89913893D01*
X154160665Y-89892320D01*
X154146987Y-89870000D01*
X154134497Y-89846995D01*
X154123227Y-89823368D01*
X154113210Y-89799184D01*
X154104472Y-89774508D01*
X154097037Y-89749410D01*
X154090926Y-89723956D01*
X154086156Y-89698217D01*
X154082739Y-89672264D01*
X154080685Y-89646168D01*
X154080000Y-89620000D01*
X154080685Y-89593832D01*
X154082739Y-89567736D01*
X154086156Y-89541783D01*
X154090926Y-89516044D01*
X154097037Y-89490590D01*
X154104472Y-89465492D01*
X154113210Y-89440816D01*
X154123227Y-89416632D01*
X154134497Y-89393005D01*
X154146987Y-89370000D01*
X154160665Y-89347680D01*
X154175492Y-89326107D01*
X154191427Y-89305340D01*
X154208428Y-89285435D01*
X154226447Y-89266447D01*
X154245435Y-89248428D01*
X154265340Y-89231427D01*
X154286107Y-89215492D01*
X154307680Y-89200665D01*
X154330000Y-89186987D01*
X154353005Y-89174497D01*
X154376632Y-89163227D01*
X154400816Y-89153210D01*
X154425492Y-89144472D01*
X154450590Y-89137037D01*
X154476044Y-89130926D01*
X154501783Y-89126156D01*
X154527736Y-89122739D01*
X154553832Y-89120685D01*
X154580000Y-89120000D01*
X154930000Y-89120000D01*
X154930000Y-89370000D01*
G37*
X154930000Y-89370000D02*
X154580000Y-89370000D01*
X154566916Y-89370343D01*
X154553868Y-89371370D01*
X154540891Y-89373078D01*
X154528022Y-89375463D01*
X154515295Y-89378519D01*
X154502746Y-89382236D01*
X154490408Y-89386605D01*
X154478316Y-89391614D01*
X154466502Y-89397248D01*
X154455000Y-89403494D01*
X154443840Y-89410332D01*
X154433054Y-89417746D01*
X154422670Y-89425714D01*
X154412717Y-89434214D01*
X154403223Y-89443223D01*
X154394214Y-89452717D01*
X154385714Y-89462670D01*
X154377746Y-89473054D01*
X154370332Y-89483840D01*
X154363494Y-89495000D01*
X154357248Y-89506502D01*
X154351614Y-89518316D01*
X154346605Y-89530408D01*
X154342236Y-89542746D01*
X154338519Y-89555295D01*
X154335463Y-89568022D01*
X154333078Y-89580891D01*
X154331370Y-89593868D01*
X154330343Y-89606916D01*
X154330000Y-89620000D01*
X154330343Y-89633084D01*
X154331370Y-89646132D01*
X154333078Y-89659109D01*
X154335463Y-89671978D01*
X154338519Y-89684705D01*
X154342236Y-89697254D01*
X154346605Y-89709592D01*
X154351614Y-89721684D01*
X154357248Y-89733498D01*
X154363494Y-89745000D01*
X154370332Y-89756160D01*
X154377746Y-89766946D01*
X154385714Y-89777330D01*
X154394214Y-89787283D01*
X154403223Y-89796777D01*
X154412717Y-89805786D01*
X154422670Y-89814286D01*
X154433054Y-89822254D01*
X154443840Y-89829668D01*
X154455000Y-89836506D01*
X154466502Y-89842752D01*
X154478316Y-89848386D01*
X154490408Y-89853395D01*
X154502746Y-89857764D01*
X154515295Y-89861481D01*
X154528022Y-89864537D01*
X154540891Y-89866922D01*
X154553868Y-89868630D01*
X154566916Y-89869657D01*
X154580000Y-89870000D01*
X155280000Y-89870000D01*
X155293084Y-89869657D01*
X155306132Y-89868630D01*
X155319109Y-89866922D01*
X155331978Y-89864537D01*
X155344705Y-89861481D01*
X155357254Y-89857764D01*
X155369592Y-89853395D01*
X155381684Y-89848386D01*
X155393498Y-89842752D01*
X155405000Y-89836506D01*
X155416160Y-89829668D01*
X155426946Y-89822254D01*
X155437330Y-89814286D01*
X155447283Y-89805786D01*
X155456777Y-89796777D01*
X155465786Y-89787283D01*
X155474286Y-89777330D01*
X155482254Y-89766946D01*
X155489668Y-89756160D01*
X155496506Y-89745000D01*
X155502752Y-89733498D01*
X155508386Y-89721684D01*
X155513395Y-89709592D01*
X155517764Y-89697254D01*
X155521481Y-89684705D01*
X155524537Y-89671978D01*
X155526922Y-89659109D01*
X155528630Y-89646132D01*
X155529657Y-89633084D01*
X155530000Y-89620000D01*
X155529657Y-89606916D01*
X155528630Y-89593868D01*
X155526922Y-89580891D01*
X155524537Y-89568022D01*
X155521481Y-89555295D01*
X155517764Y-89542746D01*
X155513395Y-89530408D01*
X155508386Y-89518316D01*
X155502752Y-89506502D01*
X155496506Y-89495000D01*
X155489668Y-89483840D01*
X155482254Y-89473054D01*
X155474286Y-89462670D01*
X155465786Y-89452717D01*
X155456777Y-89443223D01*
X155447283Y-89434214D01*
X155437330Y-89425714D01*
X155426946Y-89417746D01*
X155416160Y-89410332D01*
X155405000Y-89403494D01*
X155393498Y-89397248D01*
X155381684Y-89391614D01*
X155369592Y-89386605D01*
X155357254Y-89382236D01*
X155344705Y-89378519D01*
X155331978Y-89375463D01*
X155319109Y-89373078D01*
X155306132Y-89371370D01*
X155293084Y-89370343D01*
X155280000Y-89370000D01*
X154940000Y-89370000D01*
X154940000Y-89120000D01*
X155280000Y-89120000D01*
X155306168Y-89120685D01*
X155332264Y-89122739D01*
X155358217Y-89126156D01*
X155383956Y-89130926D01*
X155409410Y-89137037D01*
X155434508Y-89144472D01*
X155459184Y-89153210D01*
X155483368Y-89163227D01*
X155506995Y-89174497D01*
X155530000Y-89186987D01*
X155552320Y-89200665D01*
X155573893Y-89215492D01*
X155594660Y-89231427D01*
X155614565Y-89248428D01*
X155633553Y-89266447D01*
X155651572Y-89285435D01*
X155668573Y-89305340D01*
X155684508Y-89326107D01*
X155699335Y-89347680D01*
X155713013Y-89370000D01*
X155725503Y-89393005D01*
X155736773Y-89416632D01*
X155746790Y-89440816D01*
X155755528Y-89465492D01*
X155762963Y-89490590D01*
X155769074Y-89516044D01*
X155773844Y-89541783D01*
X155777261Y-89567736D01*
X155779315Y-89593832D01*
X155780000Y-89620000D01*
X155779315Y-89646168D01*
X155777261Y-89672264D01*
X155773844Y-89698217D01*
X155769074Y-89723956D01*
X155762963Y-89749410D01*
X155755528Y-89774508D01*
X155746790Y-89799184D01*
X155736773Y-89823368D01*
X155725503Y-89846995D01*
X155713013Y-89870000D01*
X155699335Y-89892320D01*
X155684508Y-89913893D01*
X155668573Y-89934660D01*
X155651572Y-89954565D01*
X155633553Y-89973553D01*
X155614565Y-89991572D01*
X155594660Y-90008573D01*
X155573893Y-90024508D01*
X155552320Y-90039335D01*
X155530000Y-90053013D01*
X155506995Y-90065503D01*
X155483368Y-90076773D01*
X155459184Y-90086790D01*
X155434508Y-90095528D01*
X155409410Y-90102963D01*
X155383956Y-90109074D01*
X155358217Y-90113844D01*
X155332264Y-90117261D01*
X155306168Y-90119315D01*
X155280000Y-90120000D01*
X154580000Y-90120000D01*
X154553832Y-90119315D01*
X154527736Y-90117261D01*
X154501783Y-90113844D01*
X154476044Y-90109074D01*
X154450590Y-90102963D01*
X154425492Y-90095528D01*
X154400816Y-90086790D01*
X154376632Y-90076773D01*
X154353005Y-90065503D01*
X154330000Y-90053013D01*
X154307680Y-90039335D01*
X154286107Y-90024508D01*
X154265340Y-90008573D01*
X154245435Y-89991572D01*
X154226447Y-89973553D01*
X154208428Y-89954565D01*
X154191427Y-89934660D01*
X154175492Y-89913893D01*
X154160665Y-89892320D01*
X154146987Y-89870000D01*
X154134497Y-89846995D01*
X154123227Y-89823368D01*
X154113210Y-89799184D01*
X154104472Y-89774508D01*
X154097037Y-89749410D01*
X154090926Y-89723956D01*
X154086156Y-89698217D01*
X154082739Y-89672264D01*
X154080685Y-89646168D01*
X154080000Y-89620000D01*
X154080685Y-89593832D01*
X154082739Y-89567736D01*
X154086156Y-89541783D01*
X154090926Y-89516044D01*
X154097037Y-89490590D01*
X154104472Y-89465492D01*
X154113210Y-89440816D01*
X154123227Y-89416632D01*
X154134497Y-89393005D01*
X154146987Y-89370000D01*
X154160665Y-89347680D01*
X154175492Y-89326107D01*
X154191427Y-89305340D01*
X154208428Y-89285435D01*
X154226447Y-89266447D01*
X154245435Y-89248428D01*
X154265340Y-89231427D01*
X154286107Y-89215492D01*
X154307680Y-89200665D01*
X154330000Y-89186987D01*
X154353005Y-89174497D01*
X154376632Y-89163227D01*
X154400816Y-89153210D01*
X154425492Y-89144472D01*
X154450590Y-89137037D01*
X154476044Y-89130926D01*
X154501783Y-89126156D01*
X154527736Y-89122739D01*
X154553832Y-89120685D01*
X154580000Y-89120000D01*
X154930000Y-89120000D01*
X154930000Y-89370000D01*
G36*
X151130000Y-80730000D02*
G01*
X150780000Y-80730000D01*
X150766916Y-80730343D01*
X150753868Y-80731370D01*
X150740891Y-80733078D01*
X150728022Y-80735463D01*
X150715295Y-80738519D01*
X150702746Y-80742236D01*
X150690408Y-80746605D01*
X150678316Y-80751614D01*
X150666502Y-80757248D01*
X150655000Y-80763494D01*
X150643840Y-80770332D01*
X150633054Y-80777746D01*
X150622670Y-80785714D01*
X150612717Y-80794214D01*
X150603223Y-80803223D01*
X150594214Y-80812717D01*
X150585714Y-80822670D01*
X150577746Y-80833054D01*
X150570332Y-80843840D01*
X150563494Y-80855000D01*
X150557248Y-80866502D01*
X150551614Y-80878316D01*
X150546605Y-80890408D01*
X150542236Y-80902746D01*
X150538519Y-80915295D01*
X150535463Y-80928022D01*
X150533078Y-80940891D01*
X150531370Y-80953868D01*
X150530343Y-80966916D01*
X150530000Y-80980000D01*
X150530343Y-80993084D01*
X150531370Y-81006132D01*
X150533078Y-81019109D01*
X150535463Y-81031978D01*
X150538519Y-81044705D01*
X150542236Y-81057254D01*
X150546605Y-81069592D01*
X150551614Y-81081684D01*
X150557248Y-81093498D01*
X150563494Y-81105000D01*
X150570332Y-81116160D01*
X150577746Y-81126946D01*
X150585714Y-81137330D01*
X150594214Y-81147283D01*
X150603223Y-81156777D01*
X150612717Y-81165786D01*
X150622670Y-81174286D01*
X150633054Y-81182254D01*
X150643840Y-81189668D01*
X150655000Y-81196506D01*
X150666502Y-81202752D01*
X150678316Y-81208386D01*
X150690408Y-81213395D01*
X150702746Y-81217764D01*
X150715295Y-81221481D01*
X150728022Y-81224537D01*
X150740891Y-81226922D01*
X150753868Y-81228630D01*
X150766916Y-81229657D01*
X150780000Y-81230000D01*
X151480000Y-81230000D01*
X151493084Y-81229657D01*
X151506132Y-81228630D01*
X151519109Y-81226922D01*
X151531978Y-81224537D01*
X151544705Y-81221481D01*
X151557254Y-81217764D01*
X151569592Y-81213395D01*
X151581684Y-81208386D01*
X151593498Y-81202752D01*
X151605000Y-81196506D01*
X151616160Y-81189668D01*
X151626946Y-81182254D01*
X151637330Y-81174286D01*
X151647283Y-81165786D01*
X151656777Y-81156777D01*
X151665786Y-81147283D01*
X151674286Y-81137330D01*
X151682254Y-81126946D01*
X151689668Y-81116160D01*
X151696506Y-81105000D01*
X151702752Y-81093498D01*
X151708386Y-81081684D01*
X151713395Y-81069592D01*
X151717764Y-81057254D01*
X151721481Y-81044705D01*
X151724537Y-81031978D01*
X151726922Y-81019109D01*
X151728630Y-81006132D01*
X151729657Y-80993084D01*
X151730000Y-80980000D01*
X151729657Y-80966916D01*
X151728630Y-80953868D01*
X151726922Y-80940891D01*
X151724537Y-80928022D01*
X151721481Y-80915295D01*
X151717764Y-80902746D01*
X151713395Y-80890408D01*
X151708386Y-80878316D01*
X151702752Y-80866502D01*
X151696506Y-80855000D01*
X151689668Y-80843840D01*
X151682254Y-80833054D01*
X151674286Y-80822670D01*
X151665786Y-80812717D01*
X151656777Y-80803223D01*
X151647283Y-80794214D01*
X151637330Y-80785714D01*
X151626946Y-80777746D01*
X151616160Y-80770332D01*
X151605000Y-80763494D01*
X151593498Y-80757248D01*
X151581684Y-80751614D01*
X151569592Y-80746605D01*
X151557254Y-80742236D01*
X151544705Y-80738519D01*
X151531978Y-80735463D01*
X151519109Y-80733078D01*
X151506132Y-80731370D01*
X151493084Y-80730343D01*
X151480000Y-80730000D01*
X151140000Y-80730000D01*
X151140000Y-80480000D01*
X151480000Y-80480000D01*
X151506168Y-80480685D01*
X151532264Y-80482739D01*
X151558217Y-80486156D01*
X151583956Y-80490926D01*
X151609410Y-80497037D01*
X151634508Y-80504472D01*
X151659184Y-80513210D01*
X151683368Y-80523227D01*
X151706995Y-80534497D01*
X151730000Y-80546987D01*
X151752320Y-80560665D01*
X151773893Y-80575492D01*
X151794660Y-80591427D01*
X151814565Y-80608428D01*
X151833553Y-80626447D01*
X151851572Y-80645435D01*
X151868573Y-80665340D01*
X151884508Y-80686107D01*
X151899335Y-80707680D01*
X151913013Y-80730000D01*
X151925503Y-80753005D01*
X151936773Y-80776632D01*
X151946790Y-80800816D01*
X151955528Y-80825492D01*
X151962963Y-80850590D01*
X151969074Y-80876044D01*
X151973844Y-80901783D01*
X151977261Y-80927736D01*
X151979315Y-80953832D01*
X151980000Y-80980000D01*
X151979315Y-81006168D01*
X151977261Y-81032264D01*
X151973844Y-81058217D01*
X151969074Y-81083956D01*
X151962963Y-81109410D01*
X151955528Y-81134508D01*
X151946790Y-81159184D01*
X151936773Y-81183368D01*
X151925503Y-81206995D01*
X151913013Y-81230000D01*
X151899335Y-81252320D01*
X151884508Y-81273893D01*
X151868573Y-81294660D01*
X151851572Y-81314565D01*
X151833553Y-81333553D01*
X151814565Y-81351572D01*
X151794660Y-81368573D01*
X151773893Y-81384508D01*
X151752320Y-81399335D01*
X151730000Y-81413013D01*
X151706995Y-81425503D01*
X151683368Y-81436773D01*
X151659184Y-81446790D01*
X151634508Y-81455528D01*
X151609410Y-81462963D01*
X151583956Y-81469074D01*
X151558217Y-81473844D01*
X151532264Y-81477261D01*
X151506168Y-81479315D01*
X151480000Y-81480000D01*
X150780000Y-81480000D01*
X150753832Y-81479315D01*
X150727736Y-81477261D01*
X150701783Y-81473844D01*
X150676044Y-81469074D01*
X150650590Y-81462963D01*
X150625492Y-81455528D01*
X150600816Y-81446790D01*
X150576632Y-81436773D01*
X150553005Y-81425503D01*
X150530000Y-81413013D01*
X150507680Y-81399335D01*
X150486107Y-81384508D01*
X150465340Y-81368573D01*
X150445435Y-81351572D01*
X150426447Y-81333553D01*
X150408428Y-81314565D01*
X150391427Y-81294660D01*
X150375492Y-81273893D01*
X150360665Y-81252320D01*
X150346987Y-81230000D01*
X150334497Y-81206995D01*
X150323227Y-81183368D01*
X150313210Y-81159184D01*
X150304472Y-81134508D01*
X150297037Y-81109410D01*
X150290926Y-81083956D01*
X150286156Y-81058217D01*
X150282739Y-81032264D01*
X150280685Y-81006168D01*
X150280000Y-80980000D01*
X150280685Y-80953832D01*
X150282739Y-80927736D01*
X150286156Y-80901783D01*
X150290926Y-80876044D01*
X150297037Y-80850590D01*
X150304472Y-80825492D01*
X150313210Y-80800816D01*
X150323227Y-80776632D01*
X150334497Y-80753005D01*
X150346987Y-80730000D01*
X150360665Y-80707680D01*
X150375492Y-80686107D01*
X150391427Y-80665340D01*
X150408428Y-80645435D01*
X150426447Y-80626447D01*
X150445435Y-80608428D01*
X150465340Y-80591427D01*
X150486107Y-80575492D01*
X150507680Y-80560665D01*
X150530000Y-80546987D01*
X150553005Y-80534497D01*
X150576632Y-80523227D01*
X150600816Y-80513210D01*
X150625492Y-80504472D01*
X150650590Y-80497037D01*
X150676044Y-80490926D01*
X150701783Y-80486156D01*
X150727736Y-80482739D01*
X150753832Y-80480685D01*
X150780000Y-80480000D01*
X151130000Y-80480000D01*
X151130000Y-80730000D01*
G37*
X151130000Y-80730000D02*
X150780000Y-80730000D01*
X150766916Y-80730343D01*
X150753868Y-80731370D01*
X150740891Y-80733078D01*
X150728022Y-80735463D01*
X150715295Y-80738519D01*
X150702746Y-80742236D01*
X150690408Y-80746605D01*
X150678316Y-80751614D01*
X150666502Y-80757248D01*
X150655000Y-80763494D01*
X150643840Y-80770332D01*
X150633054Y-80777746D01*
X150622670Y-80785714D01*
X150612717Y-80794214D01*
X150603223Y-80803223D01*
X150594214Y-80812717D01*
X150585714Y-80822670D01*
X150577746Y-80833054D01*
X150570332Y-80843840D01*
X150563494Y-80855000D01*
X150557248Y-80866502D01*
X150551614Y-80878316D01*
X150546605Y-80890408D01*
X150542236Y-80902746D01*
X150538519Y-80915295D01*
X150535463Y-80928022D01*
X150533078Y-80940891D01*
X150531370Y-80953868D01*
X150530343Y-80966916D01*
X150530000Y-80980000D01*
X150530343Y-80993084D01*
X150531370Y-81006132D01*
X150533078Y-81019109D01*
X150535463Y-81031978D01*
X150538519Y-81044705D01*
X150542236Y-81057254D01*
X150546605Y-81069592D01*
X150551614Y-81081684D01*
X150557248Y-81093498D01*
X150563494Y-81105000D01*
X150570332Y-81116160D01*
X150577746Y-81126946D01*
X150585714Y-81137330D01*
X150594214Y-81147283D01*
X150603223Y-81156777D01*
X150612717Y-81165786D01*
X150622670Y-81174286D01*
X150633054Y-81182254D01*
X150643840Y-81189668D01*
X150655000Y-81196506D01*
X150666502Y-81202752D01*
X150678316Y-81208386D01*
X150690408Y-81213395D01*
X150702746Y-81217764D01*
X150715295Y-81221481D01*
X150728022Y-81224537D01*
X150740891Y-81226922D01*
X150753868Y-81228630D01*
X150766916Y-81229657D01*
X150780000Y-81230000D01*
X151480000Y-81230000D01*
X151493084Y-81229657D01*
X151506132Y-81228630D01*
X151519109Y-81226922D01*
X151531978Y-81224537D01*
X151544705Y-81221481D01*
X151557254Y-81217764D01*
X151569592Y-81213395D01*
X151581684Y-81208386D01*
X151593498Y-81202752D01*
X151605000Y-81196506D01*
X151616160Y-81189668D01*
X151626946Y-81182254D01*
X151637330Y-81174286D01*
X151647283Y-81165786D01*
X151656777Y-81156777D01*
X151665786Y-81147283D01*
X151674286Y-81137330D01*
X151682254Y-81126946D01*
X151689668Y-81116160D01*
X151696506Y-81105000D01*
X151702752Y-81093498D01*
X151708386Y-81081684D01*
X151713395Y-81069592D01*
X151717764Y-81057254D01*
X151721481Y-81044705D01*
X151724537Y-81031978D01*
X151726922Y-81019109D01*
X151728630Y-81006132D01*
X151729657Y-80993084D01*
X151730000Y-80980000D01*
X151729657Y-80966916D01*
X151728630Y-80953868D01*
X151726922Y-80940891D01*
X151724537Y-80928022D01*
X151721481Y-80915295D01*
X151717764Y-80902746D01*
X151713395Y-80890408D01*
X151708386Y-80878316D01*
X151702752Y-80866502D01*
X151696506Y-80855000D01*
X151689668Y-80843840D01*
X151682254Y-80833054D01*
X151674286Y-80822670D01*
X151665786Y-80812717D01*
X151656777Y-80803223D01*
X151647283Y-80794214D01*
X151637330Y-80785714D01*
X151626946Y-80777746D01*
X151616160Y-80770332D01*
X151605000Y-80763494D01*
X151593498Y-80757248D01*
X151581684Y-80751614D01*
X151569592Y-80746605D01*
X151557254Y-80742236D01*
X151544705Y-80738519D01*
X151531978Y-80735463D01*
X151519109Y-80733078D01*
X151506132Y-80731370D01*
X151493084Y-80730343D01*
X151480000Y-80730000D01*
X151140000Y-80730000D01*
X151140000Y-80480000D01*
X151480000Y-80480000D01*
X151506168Y-80480685D01*
X151532264Y-80482739D01*
X151558217Y-80486156D01*
X151583956Y-80490926D01*
X151609410Y-80497037D01*
X151634508Y-80504472D01*
X151659184Y-80513210D01*
X151683368Y-80523227D01*
X151706995Y-80534497D01*
X151730000Y-80546987D01*
X151752320Y-80560665D01*
X151773893Y-80575492D01*
X151794660Y-80591427D01*
X151814565Y-80608428D01*
X151833553Y-80626447D01*
X151851572Y-80645435D01*
X151868573Y-80665340D01*
X151884508Y-80686107D01*
X151899335Y-80707680D01*
X151913013Y-80730000D01*
X151925503Y-80753005D01*
X151936773Y-80776632D01*
X151946790Y-80800816D01*
X151955528Y-80825492D01*
X151962963Y-80850590D01*
X151969074Y-80876044D01*
X151973844Y-80901783D01*
X151977261Y-80927736D01*
X151979315Y-80953832D01*
X151980000Y-80980000D01*
X151979315Y-81006168D01*
X151977261Y-81032264D01*
X151973844Y-81058217D01*
X151969074Y-81083956D01*
X151962963Y-81109410D01*
X151955528Y-81134508D01*
X151946790Y-81159184D01*
X151936773Y-81183368D01*
X151925503Y-81206995D01*
X151913013Y-81230000D01*
X151899335Y-81252320D01*
X151884508Y-81273893D01*
X151868573Y-81294660D01*
X151851572Y-81314565D01*
X151833553Y-81333553D01*
X151814565Y-81351572D01*
X151794660Y-81368573D01*
X151773893Y-81384508D01*
X151752320Y-81399335D01*
X151730000Y-81413013D01*
X151706995Y-81425503D01*
X151683368Y-81436773D01*
X151659184Y-81446790D01*
X151634508Y-81455528D01*
X151609410Y-81462963D01*
X151583956Y-81469074D01*
X151558217Y-81473844D01*
X151532264Y-81477261D01*
X151506168Y-81479315D01*
X151480000Y-81480000D01*
X150780000Y-81480000D01*
X150753832Y-81479315D01*
X150727736Y-81477261D01*
X150701783Y-81473844D01*
X150676044Y-81469074D01*
X150650590Y-81462963D01*
X150625492Y-81455528D01*
X150600816Y-81446790D01*
X150576632Y-81436773D01*
X150553005Y-81425503D01*
X150530000Y-81413013D01*
X150507680Y-81399335D01*
X150486107Y-81384508D01*
X150465340Y-81368573D01*
X150445435Y-81351572D01*
X150426447Y-81333553D01*
X150408428Y-81314565D01*
X150391427Y-81294660D01*
X150375492Y-81273893D01*
X150360665Y-81252320D01*
X150346987Y-81230000D01*
X150334497Y-81206995D01*
X150323227Y-81183368D01*
X150313210Y-81159184D01*
X150304472Y-81134508D01*
X150297037Y-81109410D01*
X150290926Y-81083956D01*
X150286156Y-81058217D01*
X150282739Y-81032264D01*
X150280685Y-81006168D01*
X150280000Y-80980000D01*
X150280685Y-80953832D01*
X150282739Y-80927736D01*
X150286156Y-80901783D01*
X150290926Y-80876044D01*
X150297037Y-80850590D01*
X150304472Y-80825492D01*
X150313210Y-80800816D01*
X150323227Y-80776632D01*
X150334497Y-80753005D01*
X150346987Y-80730000D01*
X150360665Y-80707680D01*
X150375492Y-80686107D01*
X150391427Y-80665340D01*
X150408428Y-80645435D01*
X150426447Y-80626447D01*
X150445435Y-80608428D01*
X150465340Y-80591427D01*
X150486107Y-80575492D01*
X150507680Y-80560665D01*
X150530000Y-80546987D01*
X150553005Y-80534497D01*
X150576632Y-80523227D01*
X150600816Y-80513210D01*
X150625492Y-80504472D01*
X150650590Y-80497037D01*
X150676044Y-80490926D01*
X150701783Y-80486156D01*
X150727736Y-80482739D01*
X150753832Y-80480685D01*
X150780000Y-80480000D01*
X151130000Y-80480000D01*
X151130000Y-80730000D01*
G36*
X151130000Y-89370000D02*
G01*
X150780000Y-89370000D01*
X150766916Y-89370343D01*
X150753868Y-89371370D01*
X150740891Y-89373078D01*
X150728022Y-89375463D01*
X150715295Y-89378519D01*
X150702746Y-89382236D01*
X150690408Y-89386605D01*
X150678316Y-89391614D01*
X150666502Y-89397248D01*
X150655000Y-89403494D01*
X150643840Y-89410332D01*
X150633054Y-89417746D01*
X150622670Y-89425714D01*
X150612717Y-89434214D01*
X150603223Y-89443223D01*
X150594214Y-89452717D01*
X150585714Y-89462670D01*
X150577746Y-89473054D01*
X150570332Y-89483840D01*
X150563494Y-89495000D01*
X150557248Y-89506502D01*
X150551614Y-89518316D01*
X150546605Y-89530408D01*
X150542236Y-89542746D01*
X150538519Y-89555295D01*
X150535463Y-89568022D01*
X150533078Y-89580891D01*
X150531370Y-89593868D01*
X150530343Y-89606916D01*
X150530000Y-89620000D01*
X150530343Y-89633084D01*
X150531370Y-89646132D01*
X150533078Y-89659109D01*
X150535463Y-89671978D01*
X150538519Y-89684705D01*
X150542236Y-89697254D01*
X150546605Y-89709592D01*
X150551614Y-89721684D01*
X150557248Y-89733498D01*
X150563494Y-89745000D01*
X150570332Y-89756160D01*
X150577746Y-89766946D01*
X150585714Y-89777330D01*
X150594214Y-89787283D01*
X150603223Y-89796777D01*
X150612717Y-89805786D01*
X150622670Y-89814286D01*
X150633054Y-89822254D01*
X150643840Y-89829668D01*
X150655000Y-89836506D01*
X150666502Y-89842752D01*
X150678316Y-89848386D01*
X150690408Y-89853395D01*
X150702746Y-89857764D01*
X150715295Y-89861481D01*
X150728022Y-89864537D01*
X150740891Y-89866922D01*
X150753868Y-89868630D01*
X150766916Y-89869657D01*
X150780000Y-89870000D01*
X151480000Y-89870000D01*
X151493084Y-89869657D01*
X151506132Y-89868630D01*
X151519109Y-89866922D01*
X151531978Y-89864537D01*
X151544705Y-89861481D01*
X151557254Y-89857764D01*
X151569592Y-89853395D01*
X151581684Y-89848386D01*
X151593498Y-89842752D01*
X151605000Y-89836506D01*
X151616160Y-89829668D01*
X151626946Y-89822254D01*
X151637330Y-89814286D01*
X151647283Y-89805786D01*
X151656777Y-89796777D01*
X151665786Y-89787283D01*
X151674286Y-89777330D01*
X151682254Y-89766946D01*
X151689668Y-89756160D01*
X151696506Y-89745000D01*
X151702752Y-89733498D01*
X151708386Y-89721684D01*
X151713395Y-89709592D01*
X151717764Y-89697254D01*
X151721481Y-89684705D01*
X151724537Y-89671978D01*
X151726922Y-89659109D01*
X151728630Y-89646132D01*
X151729657Y-89633084D01*
X151730000Y-89620000D01*
X151729657Y-89606916D01*
X151728630Y-89593868D01*
X151726922Y-89580891D01*
X151724537Y-89568022D01*
X151721481Y-89555295D01*
X151717764Y-89542746D01*
X151713395Y-89530408D01*
X151708386Y-89518316D01*
X151702752Y-89506502D01*
X151696506Y-89495000D01*
X151689668Y-89483840D01*
X151682254Y-89473054D01*
X151674286Y-89462670D01*
X151665786Y-89452717D01*
X151656777Y-89443223D01*
X151647283Y-89434214D01*
X151637330Y-89425714D01*
X151626946Y-89417746D01*
X151616160Y-89410332D01*
X151605000Y-89403494D01*
X151593498Y-89397248D01*
X151581684Y-89391614D01*
X151569592Y-89386605D01*
X151557254Y-89382236D01*
X151544705Y-89378519D01*
X151531978Y-89375463D01*
X151519109Y-89373078D01*
X151506132Y-89371370D01*
X151493084Y-89370343D01*
X151480000Y-89370000D01*
X151140000Y-89370000D01*
X151140000Y-89120000D01*
X151480000Y-89120000D01*
X151506168Y-89120685D01*
X151532264Y-89122739D01*
X151558217Y-89126156D01*
X151583956Y-89130926D01*
X151609410Y-89137037D01*
X151634508Y-89144472D01*
X151659184Y-89153210D01*
X151683368Y-89163227D01*
X151706995Y-89174497D01*
X151730000Y-89186987D01*
X151752320Y-89200665D01*
X151773893Y-89215492D01*
X151794660Y-89231427D01*
X151814565Y-89248428D01*
X151833553Y-89266447D01*
X151851572Y-89285435D01*
X151868573Y-89305340D01*
X151884508Y-89326107D01*
X151899335Y-89347680D01*
X151913013Y-89370000D01*
X151925503Y-89393005D01*
X151936773Y-89416632D01*
X151946790Y-89440816D01*
X151955528Y-89465492D01*
X151962963Y-89490590D01*
X151969074Y-89516044D01*
X151973844Y-89541783D01*
X151977261Y-89567736D01*
X151979315Y-89593832D01*
X151980000Y-89620000D01*
X151979315Y-89646168D01*
X151977261Y-89672264D01*
X151973844Y-89698217D01*
X151969074Y-89723956D01*
X151962963Y-89749410D01*
X151955528Y-89774508D01*
X151946790Y-89799184D01*
X151936773Y-89823368D01*
X151925503Y-89846995D01*
X151913013Y-89870000D01*
X151899335Y-89892320D01*
X151884508Y-89913893D01*
X151868573Y-89934660D01*
X151851572Y-89954565D01*
X151833553Y-89973553D01*
X151814565Y-89991572D01*
X151794660Y-90008573D01*
X151773893Y-90024508D01*
X151752320Y-90039335D01*
X151730000Y-90053013D01*
X151706995Y-90065503D01*
X151683368Y-90076773D01*
X151659184Y-90086790D01*
X151634508Y-90095528D01*
X151609410Y-90102963D01*
X151583956Y-90109074D01*
X151558217Y-90113844D01*
X151532264Y-90117261D01*
X151506168Y-90119315D01*
X151480000Y-90120000D01*
X150780000Y-90120000D01*
X150753832Y-90119315D01*
X150727736Y-90117261D01*
X150701783Y-90113844D01*
X150676044Y-90109074D01*
X150650590Y-90102963D01*
X150625492Y-90095528D01*
X150600816Y-90086790D01*
X150576632Y-90076773D01*
X150553005Y-90065503D01*
X150530000Y-90053013D01*
X150507680Y-90039335D01*
X150486107Y-90024508D01*
X150465340Y-90008573D01*
X150445435Y-89991572D01*
X150426447Y-89973553D01*
X150408428Y-89954565D01*
X150391427Y-89934660D01*
X150375492Y-89913893D01*
X150360665Y-89892320D01*
X150346987Y-89870000D01*
X150334497Y-89846995D01*
X150323227Y-89823368D01*
X150313210Y-89799184D01*
X150304472Y-89774508D01*
X150297037Y-89749410D01*
X150290926Y-89723956D01*
X150286156Y-89698217D01*
X150282739Y-89672264D01*
X150280685Y-89646168D01*
X150280000Y-89620000D01*
X150280685Y-89593832D01*
X150282739Y-89567736D01*
X150286156Y-89541783D01*
X150290926Y-89516044D01*
X150297037Y-89490590D01*
X150304472Y-89465492D01*
X150313210Y-89440816D01*
X150323227Y-89416632D01*
X150334497Y-89393005D01*
X150346987Y-89370000D01*
X150360665Y-89347680D01*
X150375492Y-89326107D01*
X150391427Y-89305340D01*
X150408428Y-89285435D01*
X150426447Y-89266447D01*
X150445435Y-89248428D01*
X150465340Y-89231427D01*
X150486107Y-89215492D01*
X150507680Y-89200665D01*
X150530000Y-89186987D01*
X150553005Y-89174497D01*
X150576632Y-89163227D01*
X150600816Y-89153210D01*
X150625492Y-89144472D01*
X150650590Y-89137037D01*
X150676044Y-89130926D01*
X150701783Y-89126156D01*
X150727736Y-89122739D01*
X150753832Y-89120685D01*
X150780000Y-89120000D01*
X151130000Y-89120000D01*
X151130000Y-89370000D01*
G37*
X151130000Y-89370000D02*
X150780000Y-89370000D01*
X150766916Y-89370343D01*
X150753868Y-89371370D01*
X150740891Y-89373078D01*
X150728022Y-89375463D01*
X150715295Y-89378519D01*
X150702746Y-89382236D01*
X150690408Y-89386605D01*
X150678316Y-89391614D01*
X150666502Y-89397248D01*
X150655000Y-89403494D01*
X150643840Y-89410332D01*
X150633054Y-89417746D01*
X150622670Y-89425714D01*
X150612717Y-89434214D01*
X150603223Y-89443223D01*
X150594214Y-89452717D01*
X150585714Y-89462670D01*
X150577746Y-89473054D01*
X150570332Y-89483840D01*
X150563494Y-89495000D01*
X150557248Y-89506502D01*
X150551614Y-89518316D01*
X150546605Y-89530408D01*
X150542236Y-89542746D01*
X150538519Y-89555295D01*
X150535463Y-89568022D01*
X150533078Y-89580891D01*
X150531370Y-89593868D01*
X150530343Y-89606916D01*
X150530000Y-89620000D01*
X150530343Y-89633084D01*
X150531370Y-89646132D01*
X150533078Y-89659109D01*
X150535463Y-89671978D01*
X150538519Y-89684705D01*
X150542236Y-89697254D01*
X150546605Y-89709592D01*
X150551614Y-89721684D01*
X150557248Y-89733498D01*
X150563494Y-89745000D01*
X150570332Y-89756160D01*
X150577746Y-89766946D01*
X150585714Y-89777330D01*
X150594214Y-89787283D01*
X150603223Y-89796777D01*
X150612717Y-89805786D01*
X150622670Y-89814286D01*
X150633054Y-89822254D01*
X150643840Y-89829668D01*
X150655000Y-89836506D01*
X150666502Y-89842752D01*
X150678316Y-89848386D01*
X150690408Y-89853395D01*
X150702746Y-89857764D01*
X150715295Y-89861481D01*
X150728022Y-89864537D01*
X150740891Y-89866922D01*
X150753868Y-89868630D01*
X150766916Y-89869657D01*
X150780000Y-89870000D01*
X151480000Y-89870000D01*
X151493084Y-89869657D01*
X151506132Y-89868630D01*
X151519109Y-89866922D01*
X151531978Y-89864537D01*
X151544705Y-89861481D01*
X151557254Y-89857764D01*
X151569592Y-89853395D01*
X151581684Y-89848386D01*
X151593498Y-89842752D01*
X151605000Y-89836506D01*
X151616160Y-89829668D01*
X151626946Y-89822254D01*
X151637330Y-89814286D01*
X151647283Y-89805786D01*
X151656777Y-89796777D01*
X151665786Y-89787283D01*
X151674286Y-89777330D01*
X151682254Y-89766946D01*
X151689668Y-89756160D01*
X151696506Y-89745000D01*
X151702752Y-89733498D01*
X151708386Y-89721684D01*
X151713395Y-89709592D01*
X151717764Y-89697254D01*
X151721481Y-89684705D01*
X151724537Y-89671978D01*
X151726922Y-89659109D01*
X151728630Y-89646132D01*
X151729657Y-89633084D01*
X151730000Y-89620000D01*
X151729657Y-89606916D01*
X151728630Y-89593868D01*
X151726922Y-89580891D01*
X151724537Y-89568022D01*
X151721481Y-89555295D01*
X151717764Y-89542746D01*
X151713395Y-89530408D01*
X151708386Y-89518316D01*
X151702752Y-89506502D01*
X151696506Y-89495000D01*
X151689668Y-89483840D01*
X151682254Y-89473054D01*
X151674286Y-89462670D01*
X151665786Y-89452717D01*
X151656777Y-89443223D01*
X151647283Y-89434214D01*
X151637330Y-89425714D01*
X151626946Y-89417746D01*
X151616160Y-89410332D01*
X151605000Y-89403494D01*
X151593498Y-89397248D01*
X151581684Y-89391614D01*
X151569592Y-89386605D01*
X151557254Y-89382236D01*
X151544705Y-89378519D01*
X151531978Y-89375463D01*
X151519109Y-89373078D01*
X151506132Y-89371370D01*
X151493084Y-89370343D01*
X151480000Y-89370000D01*
X151140000Y-89370000D01*
X151140000Y-89120000D01*
X151480000Y-89120000D01*
X151506168Y-89120685D01*
X151532264Y-89122739D01*
X151558217Y-89126156D01*
X151583956Y-89130926D01*
X151609410Y-89137037D01*
X151634508Y-89144472D01*
X151659184Y-89153210D01*
X151683368Y-89163227D01*
X151706995Y-89174497D01*
X151730000Y-89186987D01*
X151752320Y-89200665D01*
X151773893Y-89215492D01*
X151794660Y-89231427D01*
X151814565Y-89248428D01*
X151833553Y-89266447D01*
X151851572Y-89285435D01*
X151868573Y-89305340D01*
X151884508Y-89326107D01*
X151899335Y-89347680D01*
X151913013Y-89370000D01*
X151925503Y-89393005D01*
X151936773Y-89416632D01*
X151946790Y-89440816D01*
X151955528Y-89465492D01*
X151962963Y-89490590D01*
X151969074Y-89516044D01*
X151973844Y-89541783D01*
X151977261Y-89567736D01*
X151979315Y-89593832D01*
X151980000Y-89620000D01*
X151979315Y-89646168D01*
X151977261Y-89672264D01*
X151973844Y-89698217D01*
X151969074Y-89723956D01*
X151962963Y-89749410D01*
X151955528Y-89774508D01*
X151946790Y-89799184D01*
X151936773Y-89823368D01*
X151925503Y-89846995D01*
X151913013Y-89870000D01*
X151899335Y-89892320D01*
X151884508Y-89913893D01*
X151868573Y-89934660D01*
X151851572Y-89954565D01*
X151833553Y-89973553D01*
X151814565Y-89991572D01*
X151794660Y-90008573D01*
X151773893Y-90024508D01*
X151752320Y-90039335D01*
X151730000Y-90053013D01*
X151706995Y-90065503D01*
X151683368Y-90076773D01*
X151659184Y-90086790D01*
X151634508Y-90095528D01*
X151609410Y-90102963D01*
X151583956Y-90109074D01*
X151558217Y-90113844D01*
X151532264Y-90117261D01*
X151506168Y-90119315D01*
X151480000Y-90120000D01*
X150780000Y-90120000D01*
X150753832Y-90119315D01*
X150727736Y-90117261D01*
X150701783Y-90113844D01*
X150676044Y-90109074D01*
X150650590Y-90102963D01*
X150625492Y-90095528D01*
X150600816Y-90086790D01*
X150576632Y-90076773D01*
X150553005Y-90065503D01*
X150530000Y-90053013D01*
X150507680Y-90039335D01*
X150486107Y-90024508D01*
X150465340Y-90008573D01*
X150445435Y-89991572D01*
X150426447Y-89973553D01*
X150408428Y-89954565D01*
X150391427Y-89934660D01*
X150375492Y-89913893D01*
X150360665Y-89892320D01*
X150346987Y-89870000D01*
X150334497Y-89846995D01*
X150323227Y-89823368D01*
X150313210Y-89799184D01*
X150304472Y-89774508D01*
X150297037Y-89749410D01*
X150290926Y-89723956D01*
X150286156Y-89698217D01*
X150282739Y-89672264D01*
X150280685Y-89646168D01*
X150280000Y-89620000D01*
X150280685Y-89593832D01*
X150282739Y-89567736D01*
X150286156Y-89541783D01*
X150290926Y-89516044D01*
X150297037Y-89490590D01*
X150304472Y-89465492D01*
X150313210Y-89440816D01*
X150323227Y-89416632D01*
X150334497Y-89393005D01*
X150346987Y-89370000D01*
X150360665Y-89347680D01*
X150375492Y-89326107D01*
X150391427Y-89305340D01*
X150408428Y-89285435D01*
X150426447Y-89266447D01*
X150445435Y-89248428D01*
X150465340Y-89231427D01*
X150486107Y-89215492D01*
X150507680Y-89200665D01*
X150530000Y-89186987D01*
X150553005Y-89174497D01*
X150576632Y-89163227D01*
X150600816Y-89153210D01*
X150625492Y-89144472D01*
X150650590Y-89137037D01*
X150676044Y-89130926D01*
X150701783Y-89126156D01*
X150727736Y-89122739D01*
X150753832Y-89120685D01*
X150780000Y-89120000D01*
X151130000Y-89120000D01*
X151130000Y-89370000D01*
%TD*%
D11*
%TO.P,R5,2*%
%TO.N,Net-(D1-Pad1)*%
X125730000Y-83820000D03*
D12*
%TO.P,R5,1*%
%TO.N,GND*%
X123190000Y-83820000D03*
%TD*%
D13*
%TO.N,Net-(J1-PadS1)*%
%TO.C,J1*%
X151130000Y-89995000D03*
X151130000Y-81355000D03*
X154930000Y-89995000D03*
X154930000Y-81355000D03*
D14*
%TD*%
%TO.P,J1,B5*%
%TO.N,Net-(J1-PadB5)*%
X151130000Y-84800000D03*
%TO.P,J1,A5*%
%TO.N,Net-(J1-PadA5)*%
X151130000Y-85800000D03*
D15*
%TO.P,J1,B9*%
%TO.N,/Reset*%
X151130000Y-86820000D03*
%TO.P,J1,A9*%
X151130000Y-83780000D03*
D16*
%TO.P,J1,B12*%
%TO.N,GND*%
X151130000Y-88050000D03*
%TO.P,J1,A12*%
X151130000Y-82550000D03*
%TD*%
D17*
%TO.P,C1,2*%
%TO.N,GND*%
X122960000Y-93980000D03*
D18*
%TO.P,C1,1*%
%TO.N,/Threshold*%
X124460000Y-93980000D03*
%TD*%
%TO.P,C2,1*%
%TO.N,/Reset*%
X124460000Y-74930000D03*
D17*
%TO.P,C2,2*%
%TO.N,GND*%
X122960000Y-74930000D03*
%TD*%
D19*
%TO.P,D1,1*%
%TO.N,Net-(D1-Pad1)*%
X130810000Y-74930000D03*
D20*
%TO.P,D1,2*%
%TO.N,Net-(D1-Pad2)*%
X133350000Y-74930000D03*
%TD*%
D12*
%TO.P,R1,1*%
%TO.N,/Reset*%
X132080000Y-83820000D03*
D11*
%TO.P,R1,2*%
%TO.N,/Discharge*%
X129540000Y-83820000D03*
%TD*%
%TO.P,R2,2*%
%TO.N,/Threshold*%
X129540000Y-93980000D03*
D12*
%TO.P,R2,1*%
%TO.N,/Discharge*%
X129540000Y-91440000D03*
%TD*%
%TO.P,R3,1*%
%TO.N,/Reset*%
X147320000Y-74930000D03*
D11*
%TO.P,R3,2*%
%TO.N,Net-(R3-Pad2)*%
X144780000Y-74930000D03*
%TD*%
%TO.P,R4,2*%
%TO.N,Net-(R3-Pad2)*%
X140970000Y-74930000D03*
D12*
%TO.P,R4,1*%
%TO.N,Net-(D1-Pad2)*%
X138430000Y-74930000D03*
%TD*%
D21*
%TO.P,U1,1*%
%TO.N,GND*%
X144780000Y-81280000D03*
D11*
%TO.P,U1,5*%
%TO.N,Net-(U1-Pad5)*%
X137160000Y-88900000D03*
%TO.P,U1,2*%
%TO.N,/Threshold*%
X142240000Y-81280000D03*
%TO.P,U1,6*%
X139700000Y-88900000D03*
%TO.P,U1,3*%
%TO.N,Net-(R3-Pad2)*%
X139700000Y-81280000D03*
%TO.P,U1,7*%
%TO.N,/Discharge*%
X142240000Y-88900000D03*
%TO.P,U1,4*%
%TO.N,/Reset*%
X137160000Y-81280000D03*
%TO.P,U1,8*%
X144780000Y-88900000D03*
%TD*%
D22*
%TO.N,/Reset*%
X138430000Y-78740000D03*
X146050000Y-78740000D03*
%TO.N,/Discharge*%
X132080000Y-91440000D03*
%TD*%
D23*
%TO.N,/Threshold*%
X124460000Y-93980000D02*
X129540000Y-93980000D01*
X129540000Y-93980000D02*
X138430000Y-93980000D01*
X139700000Y-92710000D02*
X139700000Y-88900000D01*
X138430000Y-93980000D02*
X139700000Y-92710000D01*
%TO.N,/Reset*%
X132080000Y-83820000D02*
X132080000Y-81280000D01*
X132080000Y-81280000D02*
X130810000Y-80010000D01*
X130810000Y-80010000D02*
X125730000Y-80010000D01*
X125730000Y-80010000D02*
X124460000Y-78740000D01*
X124460000Y-78740000D02*
X124460000Y-74930000D01*
X132080000Y-81280000D02*
X137160000Y-81280000D01*
X148550000Y-83780000D02*
X151130000Y-83780000D01*
X147320000Y-82550000D02*
X148550000Y-83780000D01*
X148550000Y-83780000D02*
X148550000Y-90210000D01*
X148550000Y-90210000D02*
X147320000Y-91440000D01*
X147320000Y-91440000D02*
X146050000Y-91440000D01*
X144780000Y-90170000D02*
X144780000Y-88900000D01*
X146050000Y-91440000D02*
X144780000Y-90170000D01*
X137160000Y-81280000D02*
X137160000Y-80010000D01*
X137160000Y-80010000D02*
X138430000Y-78740000D01*
X146050000Y-78740000D02*
X147320000Y-78740000D01*
X147320000Y-78740000D02*
X147320000Y-82550000D01*
X147320000Y-74930000D02*
X147320000Y-78740000D01*
%TO.N,Net-(D1-Pad2)*%
X133350000Y-74930000D02*
X138430000Y-74930000D01*
%TO.N,/Discharge*%
X129540000Y-91440000D02*
X129540000Y-83820000D01*
X129540000Y-91440000D02*
X132080000Y-91440000D01*
%TO.N,Net-(R3-Pad2)*%
X140970000Y-74930000D02*
X140970000Y-77470000D01*
X140970000Y-77470000D02*
X139700000Y-78740000D01*
X139700000Y-78740000D02*
X139700000Y-81280000D01*
X140970000Y-74930000D02*
X144780000Y-74930000D01*
%TD*%
M02*
